<?xml version="1.0" encoding="UTF-8" standalone="no"?>
<!-- Generated by Microsoft Visio, SVG Export network_scenario_a_regional.svg Page-1 -->

<svg
   width="1555"
   height="480"
   viewBox="0 0 1166.2495 359.99986"
   xml:space="preserve"
   color-interpolation-filters="sRGB"
   class="st31"
   version="1.1"
   id="svg820"
   sodipodi:docname="network_scenario_a_regional.svg"
   inkscape:version="1.2.1 (9c6d41e410, 2022-07-14)"
   xmlns:inkscape="http://www.inkscape.org/namespaces/inkscape"
   xmlns:sodipodi="http://sodipodi.sourceforge.net/DTD/sodipodi-0.dtd"
   xmlns:xlink="http://www.w3.org/1999/xlink"
   xmlns="http://www.w3.org/2000/svg"
   xmlns:svg="http://www.w3.org/2000/svg"
   xmlns:v="http://schemas.microsoft.com/visio/2003/SVGExtensions/"><sodipodi:namedview
   id="namedview822"
   pagecolor="#ffffff"
   bordercolor="#666666"
   borderopacity="1.0"
   inkscape:showpageshadow="2"
   inkscape:pageopacity="1"
   inkscape:pagecheckerboard="0"
   inkscape:deskcolor="#d1d1d1"
   inkscape:document-units="px"
   showgrid="false"
   inkscape:zoom="1"
   inkscape:cx="901"
   inkscape:cy="139"
   inkscape:window-width="1920"
   inkscape:window-height="1017"
   inkscape:window-x="1072"
   inkscape:window-y="573"
   inkscape:window-maximized="1"
   inkscape:current-layer="svg820" />
	<v:documentProperties
   v:langID="1033"
   v:viewMarkup="false" />

	<style
   type="text/css"
   id="style2">
	<![CDATA[
		.st1 {fill:#f5f4f2;stroke:#9e9892;stroke-linecap:round;stroke-linejoin:round;stroke-width:1}
		.st2 {fill:#000000;font-family:Oracle Sans;font-size:0.75em;font-weight:bold}
		.st3 {fill:#dfdcd8;stroke:#9e9892;stroke-linecap:round;stroke-linejoin:round;stroke-width:1}
		.st4 {font-size:0.888885em;font-weight:normal}
		.st5 {fill:none;stroke:#ae562c;stroke-dasharray:3,3;stroke-width:1}
		.st6 {fill:#ae562c;font-family:Oracle Sans;font-size:0.75em;font-weight:bold}
		.st7 {fill:#000000;font-size:0.888885em;font-weight:normal}
		.st8 {fill:#f5f4f2;stroke:none;stroke-linecap:round;stroke-linejoin:round;stroke-width:1}
		.st9 {fill:#ffffff;stroke:none;stroke-linecap:butt;stroke-width:14.069}
		.st10 {fill:#bb501c;stroke:none;stroke-linecap:butt;stroke-width:14.069}
		.st11 {font-size:1em}
		.st12 {fill:#ffffff;stroke:none;stroke-linecap:butt;stroke-width:14.5714}
		.st13 {fill:#bb501c;stroke:none;stroke-linecap:butt;stroke-width:14.5714}
		.st14 {fill:#ffffff;stroke:none;stroke-linecap:butt;stroke-width:18.7678}
		.st15 {fill:none;stroke:none;stroke-linecap:butt;stroke-width:18.7678}
		.st16 {fill:#bb501c;stroke:none;stroke-linecap:butt;stroke-width:18.7678}
		.st17 {fill:#2c5967;stroke:none;stroke-linecap:butt;stroke-width:14.5714}
		.st18 {fill:none;stroke:none;stroke-width:0.25}
		.st19 {fill:#312d2a;font-family:Oracle Sans Tab;font-size:0.666664em}
		.st20 {fill:#312d2a;font-family:Oracle Sans;font-size:0.666664em}
		.st21 {fill:#ffffff;stroke:none;stroke-linecap:butt;stroke-width:15.5686}
		.st22 {fill:#ffffff}
		.st23 {stroke:none;stroke-linecap:butt;stroke-width:15.5686}
		.st24 {fill:#2c5967;stroke:none;stroke-linecap:butt;stroke-width:15.5686}
		.st25 {fill:#ffffff;stroke:none;stroke-linecap:butt;stroke-width:18.8571}
		.st26 {fill:#2c5967;stroke:none;stroke-linecap:butt;stroke-width:18.8571}
		.st27 {marker-end:url(#mrkr3-308);marker-start:url(#mrkr3-306);stroke:#000000;stroke-linecap:round;stroke-linejoin:round;stroke-width:1}
		.st28 {fill:#000000;fill-opacity:1;stroke:#000000;stroke-opacity:1;stroke-width:0.28409090909091}
		.st29 {fill:#ae562c;stroke:#f5f4f2;stroke-linecap:round;stroke-linejoin:round;stroke-width:1.5}
		.st30 {fill:#fcfbfa;font-family:Oracle Sans;font-size:0.669044em;font-weight:bold}
		.st31 {fill:none;fill-rule:evenodd;font-size:12px;overflow:visible;stroke-linecap:square;stroke-miterlimit:3}
	]]>
	</style>

	<defs
   id="Markers">
		<g
   id="lend3">
			<path
   d="M 2,1 0,0 2,-1"
   style="fill:none;stroke-linecap:round;stroke-linejoin:round"
   id="path4" />
		</g>
		<marker
   id="mrkr3-306"
   class="st28"
   v:arrowType="3"
   v:arrowSize="2"
   orient="auto"
   markerUnits="strokeWidth"
   overflow="visible">
			<use
   xlink:href="#lend3"
   transform="scale(3.52)"
   id="use7" />
		</marker>
		<marker
   id="mrkr3-308"
   class="st28"
   v:arrowType="3"
   v:arrowSize="2"
   orient="auto"
   markerUnits="strokeWidth"
   overflow="visible">
			<use
   xlink:href="#lend3"
   transform="scale(-3.52)"
   id="use10" />
		</marker>
	</defs><rect
   style="fill:#fcfbfa;stroke-width:1.68954;stroke-miterlimit:3"
   id="rect1310"
   width="1166.2495"
   height="359.99985"
   x="0"
   y="0" />
	<g
   v:mID="0"
   v:index="1"
   v:groupContext="foregroundPage"
   id="g818"
   transform="matrix(1.6214113,0,0,1.6214113,18.749993,18.750095)">
		<title
   id="title14">Page-1</title>
		<v:pageProperties
   v:drawingScale="1"
   v:pageScale="1"
   v:drawingUnits="19"
   v:shadowOffsetX="9"
   v:shadowOffsetY="-9" />
		<v:layer
   v:name="Connector"
   v:index="0" />
		<g
   id="shape68-1"
   v:mID="68"
   v:groupContext="shape"
   transform="translate(243.883,-0.500063)">
			<title
   id="title16">Sheet.68</title>
			<desc
   id="desc18">OCI Region</desc>
			<v:textBlock
   v:margins="rect(4,4,4,4)"
   v:verticalAlign="0" />
			<v:textRect
   cx="225.886"
   cy="100"
   width="451.78"
   height="198" />
			<path
   d="M 0,4.55 C 0,2.65 0.78,1 1.68,1 h 448.45 c 0.9,0 1.64,1.65 1.64,3.55 v 190.99 c 0,1.89 -0.74,3.46 -1.64,3.46 H 1.68 C 0.78,199 0,197.43 0,195.54 Z"
   class="st1"
   id="path20" />
			<text
   x="202.03999"
   y="13.1"
   class="st2"
   v:langID="1033"
   id="text22"><v:paragraph
   v:horizAlign="1" /><v:tabList />OCI Region</text>		</g>
		<g
   id="shape69-4"
   v:mID="69"
   v:groupContext="shape"
   transform="translate(378.004,-9)">
			<title
   id="title25">Sheet.69</title>
			<desc
   id="desc27">Availability Domain 1</desc>
			<v:textBlock
   v:margins="rect(4,4,4,4)"
   v:verticalAlign="0" />
			<v:textRect
   cx="55.9275"
   cy="113.5"
   width="111.86"
   height="171" />
			<path
   d="M 0,31.06 C 0,29.43 0.19,28 0.42,28 h 111.03 c 0.22,0 0.4,1.43 0.4,3.06 v 164.95 c 0,1.64 -0.18,2.99 -0.4,2.99 H 0.42 C 0.19,199 0,197.65 0,196.01 Z"
   class="st3"
   id="path29" />
			<text
   x="10.79"
   y="40.099998"
   class="st2"
   v:langID="1033"
   id="text31"><v:paragraph
   v:horizAlign="1" /><v:tabList />Availability Domain 1</text>		</g>
		<g
   id="shape73-7"
   v:mID="73"
   v:groupContext="shape"
   transform="translate(0.5,-0.500057)">
			<title
   id="title34">Sheet.73</title>
			<desc
   id="desc36">On-Premises 10.0.0.0/16</desc>
			<v:textBlock
   v:margins="rect(4,4,4,4)"
   v:verticalAlign="0" />
			<v:textRect
   cx="54.3852"
   cy="100"
   width="108.78"
   height="198" />
			<path
   d="M 0,4.55 C 0,2.65 0.19,1 0.4,1 h 107.98 c 0.21,0 0.39,1.65 0.39,3.55 v 190.99 c 0,1.89 -0.18,3.46 -0.39,3.46 H 0.4 C 0.19,199 0,197.43 0,195.54 Z"
   class="st1"
   id="path38" />
			<text
   x="26.620001"
   y="13.1"
   class="st2"
   v:langID="1033"
   id="text42"><v:paragraph
   v:horizAlign="1" /><v:tabList />On-Premises<v:lf /><tspan
   x="33.970001"
   dy="1.35em"
   class="st4"
   id="tspan40">10.0.0.0/16</tspan></text>		</g>
		<g
   id="shape75-11"
   v:mID="75"
   v:groupContext="shape"
   transform="translate(123.269,-0.5)">
			<title
   id="title45">Sheet.75</title>
			<desc
   id="desc47">Internet</desc>
			<v:textBlock
   v:margins="rect(4,4,4,4)"
   v:verticalAlign="0" />
			<v:textRect
   cx="54.4452"
   cy="100"
   width="108.9"
   height="198" />
			<path
   d="M 0,4.55 C 0,2.65 0.19,1 0.41,1 h 108.08 c 0.22,0 0.4,1.65 0.4,3.55 v 190.99 c 0,1.89 -0.18,3.46 -0.4,3.46 H 0.41 C 0.19,199 0,197.43 0,195.54 Z"
   class="st1"
   id="path49" />
			<text
   x="37"
   y="13.1"
   class="st2"
   v:langID="1033"
   id="text51"><v:paragraph
   v:horizAlign="1" /><v:tabList />Internet</text>		</g>
		<g
   id="shape130-14"
   v:mID="130"
   v:groupContext="shape"
   transform="translate(500.145,-9)">
			<title
   id="title54">Sheet.130</title>
			<desc
   id="desc56">Availability Domain 2</desc>
			<v:textBlock
   v:margins="rect(4,4,4,4)"
   v:verticalAlign="0" />
			<v:textRect
   cx="55.9275"
   cy="113.5"
   width="111.86"
   height="171" />
			<path
   d="M 0,31.06 C 0,29.43 0.19,28 0.42,28 h 111.03 c 0.22,0 0.4,1.43 0.4,3.06 v 164.95 c 0,1.64 -0.18,2.99 -0.4,2.99 H 0.42 C 0.19,199 0,197.65 0,196.01 Z"
   class="st3"
   id="path58" />
			<text
   x="10.28"
   y="40.099998"
   class="st2"
   v:langID="1033"
   id="text60"><v:paragraph
   v:horizAlign="1" /><v:tabList />Availability Domain 2</text>		</g>
		<g
   id="shape79-17"
   v:mID="79"
   v:groupContext="shape"
   transform="translate(279,-25.3)">
			<title
   id="title63">Sheet.79</title>
			<desc
   id="desc65">VCN 172.16.0.0/16</desc>
			<v:textBlock
   v:margins="rect(4,4,4,4)"
   v:verticalAlign="0" />
			<v:textRect
   cx="186.75"
   cy="132.4"
   width="373.5"
   height="133.2" />
			<path
   d="M 0,199 H 373.5 V 65.8 H 0 Z"
   class="st5"
   id="path67" />
			<text
   x="4"
   y="77.900002"
   class="st6"
   v:langID="1033"
   id="text71"><v:paragraph /><v:tabList />VCN<v:lf /><tspan
   x="4"
   dy="1.35em"
   class="st7"
   id="tspan69">172.16.0.0/16</tspan></text>		</g>
		<g
   id="shape273-21"
   v:mID="273"
   v:groupContext="shape"
   transform="translate(260.408,-56.25)">
			<title
   id="title74">Sheet.273</title>
			<path
   d="m 0,177.27 c 0,-0.21 0.06,-0.39 0.13,-0.39 h 35.74 c 0.07,0 0.13,0.18 0.13,0.39 v 21.34 c 0,0.21 -0.06,0.39 -0.13,0.39 H 0.13 C 0.06,199 0,198.82 0,198.61 Z"
   class="st8"
   id="path76" />
		</g>
		<g
   id="group80-23"
   transform="translate(643.193,-18.5284)"
   v:mID="80"
   v:groupContext="group">
			<title
   id="title79">VCN</title>
			<g
   id="group81-24"
   v:mID="81"
   v:groupContext="group">
				<title
   id="title81">Sheet.81</title>
				<g
   id="shape82-25"
   v:mID="82"
   v:groupContext="shape"
   transform="translate(0.213948,-0.213948)">
					<title
   id="title83">Sheet.82</title>
					<path
   d="m 13.14,199 c -1.2,0 -2.27,-0.86 -2.53,-2.05 H 7.57 C 7.32,198.1 6.29,199 5.05,199 c -1.41,0 -2.57,-1.16 -2.57,-2.57 0,-0.9 0.52,-1.75 1.29,-2.22 l -0.95,-2.87 c -0.08,0 -0.17,0 -0.25,0 -1.41,0 -2.57,-1.15 -2.57,-2.57 0,-1.41 1.16,-2.56 2.57,-2.56 0.64,0 1.24,0.21 1.71,0.68 l 2.48,-1.8 c -0.13,-0.34 -0.21,-0.68 -0.21,-1.07 0,-1.41 1.15,-2.56 2.56,-2.56 1.42,0 2.57,1.15 2.57,2.56 0,0.35 -0.08,0.73 -0.21,1.07 l 2.44,1.8 c 0.47,-0.43 1.07,-0.68 1.71,-0.68 1.41,0 2.57,1.15 2.57,2.56 0,1.42 -1.16,2.57 -2.57,2.57 -0.09,0 -0.17,0 -0.26,0 l -0.94,2.87 c 0.77,0.47 1.28,1.32 1.28,2.22 0,1.41 -1.15,2.57 -2.56,2.57 z"
   class="st9"
   id="path85" />
				</g>
				<g
   id="shape83-27"
   v:mID="83"
   v:groupContext="shape">
					<title
   id="title88">Sheet.83</title>
					<path
   d="m 9.29,181.46 c 1.28,0 2.35,1.07 2.35,2.35 0,0.38 -0.09,0.77 -0.3,1.11 l 2.74,2.01 c 0.43,-0.47 1.02,-0.72 1.71,-0.72 1.28,0 2.35,1.07 2.35,2.35 0,1.28 -1.07,2.35 -2.35,2.35 -0.13,0 -0.3,0 -0.43,-0.04 l -1.07,3.21 c 0.77,0.38 1.33,1.2 1.33,2.14 0,1.28 -1.07,2.35 -2.36,2.35 -1.19,0 -2.18,-0.9 -2.35,-2.05 H 7.53 c -0.17,1.15 -1.15,2.05 -2.35,2.05 -1.29,0 -2.36,-1.07 -2.36,-2.35 0,-0.94 0.56,-1.76 1.33,-2.14 l -0.94,-3.21 c -0.13,0.04 -0.3,0.04 -0.43,0.04 -1.28,0 -2.35,-1.07 -2.35,-2.35 0,-1.28 1.07,-2.35 2.35,-2.35 0.69,0 1.29,0.3 1.71,0.72 l 2.74,-2.01 c -0.17,-0.34 -0.3,-0.73 -0.3,-1.11 0,-1.28 1.07,-2.35 2.36,-2.35 z m 0,-0.43 c -1.55,0 -2.79,1.24 -2.79,2.78 0,0.34 0.05,0.68 0.18,0.98 l -2.19,1.59 c -0.47,-0.39 -1.11,-0.6 -1.71,-0.6 -1.54,0 -2.78,1.24 -2.78,2.78 0,1.54 1.24,2.78 2.78,2.78 0.04,0 0.09,0 0.13,0 l 0.81,2.57 c -0.77,0.51 -1.24,1.37 -1.24,2.31 0,1.54 1.24,2.78 2.78,2.78 1.24,0 2.36,-0.86 2.7,-2.05 h 2.69 c 0.35,1.19 1.42,2.05 2.7,2.05 1.54,0 2.78,-1.24 2.78,-2.78 0,-0.94 -0.47,-1.8 -1.24,-2.31 l 0.81,-2.57 c 0.05,0 0.09,0 0.13,0 1.54,0 2.78,-1.24 2.78,-2.78 0,-1.54 -1.24,-2.78 -2.78,-2.78 -0.64,0 -1.24,0.21 -1.75,0.6 l -2.18,-1.59 c 0.12,-0.3 0.17,-0.64 0.17,-0.98 0.04,-1.54 -1.24,-2.78 -2.78,-2.78 z"
   class="st9"
   id="path90" />
				</g>
			</g>
			<g
   id="shape84-29"
   v:mID="84"
   v:groupContext="shape"
   transform="translate(0.470686,-0.427897)">
				<title
   id="title94">Sheet.84</title>
				<path
   d="m 15.36,186.63 c -0.68,0 -1.28,0.3 -1.71,0.73 l -2.74,-2.01 c 0.17,-0.34 0.3,-0.73 0.3,-1.11 0,-1.29 -1.07,-2.36 -2.35,-2.36 -1.29,0 -2.36,1.07 -2.36,2.36 0,0.38 0.09,0.77 0.3,1.11 l -2.73,2.01 c -0.43,-0.43 -1.03,-0.73 -1.72,-0.73 -1.28,0 -2.35,1.07 -2.35,2.36 0,1.28 1.07,2.35 2.35,2.35 0.13,0 0.3,0 0.43,-0.04 l 1.03,3.21 c -0.77,0.38 -1.33,1.2 -1.33,2.14 0,1.28 1.07,2.35 2.36,2.35 1.19,0 2.18,-0.9 2.35,-2.05 h 3.38 c 0.17,1.15 1.15,2.05 2.35,2.05 1.29,0 2.36,-1.07 2.36,-2.35 0,-0.94 -0.56,-1.76 -1.33,-2.14 l 0.98,-3.21 c 0.13,0.04 0.3,0.04 0.43,0.04 1.29,0 2.35,-1.07 2.35,-2.35 0,-1.29 -1.06,-2.36 -2.35,-2.36 z m -2.48,11.73 c -0.94,0 -1.71,-0.77 -1.71,-1.71 0,-0.94 0.77,-1.71 1.71,-1.71 0.94,0 1.71,0.77 1.71,1.71 0,0.94 -0.77,1.71 -1.71,1.71 z M 7.15,196.35 C 7.06,195.79 6.8,195.32 6.42,194.94 l 1.28,-1.8 c 0.34,0.17 0.73,0.3 1.11,0.3 0.39,0 0.77,-0.09 1.12,-0.3 l 1.28,1.8 c -0.38,0.34 -0.64,0.85 -0.73,1.41 z m -4.07,0.3 c 0,-0.94 0.77,-1.71 1.71,-1.71 0.94,0 1.71,0.77 1.71,1.71 0,0.94 -0.77,1.71 -1.71,1.71 -0.94,0 -1.71,-0.77 -1.71,-1.71 z m -0.77,-9.42 c 0.94,0 1.71,0.77 1.71,1.71 0,0.95 -0.77,1.72 -1.71,1.72 -0.94,0 -1.71,-0.77 -1.71,-1.72 0,-0.94 0.77,-1.71 1.71,-1.71 z m 4.79,-2.99 c 0,-0.94 0.77,-1.71 1.71,-1.71 0.95,0 1.72,0.77 1.72,1.71 0,0.94 -0.77,1.71 -1.72,1.71 -0.94,0 -1.71,-0.77 -1.71,-1.71 z m 5.95,5.13 -2.1,0.69 c -0.34,-0.69 -1.02,-1.2 -1.79,-1.33 v -2.14 c 0.55,-0.08 1.02,-0.34 1.37,-0.73 l 2.73,2.01 c -0.17,0.35 -0.29,0.73 -0.29,1.12 0.04,0.13 0.04,0.25 0.08,0.38 z m -2.48,1.71 c 0,0.95 -0.77,1.72 -1.71,1.72 -0.94,0 -1.71,-0.77 -1.71,-1.72 0,-0.94 0.77,-1.71 1.71,-1.71 0.94,0 1.71,0.73 1.71,1.71 z m -2.05,-4.49 v 2.14 c -0.82,0.13 -1.5,0.6 -1.8,1.33 l -2.1,-0.69 c 0.04,-0.13 0.04,-0.25 0.04,-0.43 0,-0.38 -0.08,-0.77 -0.3,-1.11 l 2.74,-2.01 c 0.39,0.43 0.86,0.69 1.42,0.77 z m -4.07,3.38 2.1,0.69 c -0.05,0.12 -0.05,0.25 -0.05,0.42 0,0.69 0.3,1.29 0.73,1.72 l -1.28,1.79 c -0.34,-0.17 -0.73,-0.3 -1.11,-0.3 -0.13,0 -0.3,0 -0.43,0.05 l -1.03,-3.21 c 0.43,-0.26 0.81,-0.65 1.07,-1.16 z m 8.43,4.32 c -0.39,0 -0.77,0.09 -1.11,0.3 l -1.29,-1.79 c 0.47,-0.43 0.73,-1.03 0.73,-1.72 0,-0.12 0,-0.3 -0.04,-0.42 l 2.09,-0.69 c 0.22,0.47 0.65,0.86 1.12,1.11 l -1.07,3.21 c -0.17,0 -0.3,0 -0.43,0 z m 0.77,-5.3 c 0,-0.94 0.77,-1.71 1.71,-1.71 0.94,0 1.71,0.77 1.71,1.71 0,0.94 -0.77,1.71 -1.71,1.71 -0.94,0 -1.71,-0.77 -1.71,-1.71 z"
   class="st10"
   id="path96" />
			</g>
		</g>
		<g
   id="shape87-31"
   v:mID="87"
   v:groupContext="shape"
   transform="translate(306,-52.7845)">
			<title
   id="title100">Sheet.87</title>
			<desc
   id="desc102">Regional Public Subnet 172.16.0.0/24</desc>
			<v:textBlock
   v:margins="rect(4,4,4,4)"
   v:verticalAlign="0" />
			<v:textRect
   cx="159.75"
   cy="159.892"
   width="319.51"
   height="78.2155" />
			<path
   d="M 0,199 H 319.5 V 120.78 H 0 Z"
   class="st5"
   id="path104" />
			<text
   x="4"
   y="132.88"
   class="st6"
   v:langID="1033"
   id="text110"><v:paragraph /><v:tabList />Regional <v:lf /><tspan
   x="4"
   dy="1.2em"
   class="st11"
   id="tspan106">Public Subnet<v:newlineChar /></tspan><tspan
   x="4"
   dy="1.238em"
   class="st7"
   id="tspan108">172.16.0.0/24</tspan></text>		</g>
		<g
   id="group88-36"
   transform="translate(616.5,-52.25)"
   v:mID="88"
   v:groupContext="group">
			<title
   id="title113">Subnet</title>
			<g
   id="group89-37"
   transform="translate(0,-18)"
   v:mID="89"
   v:groupContext="group">
				<title
   id="title115">Route Table</title>
				<g
   id="group90-38"
   v:mID="90"
   v:groupContext="group">
					<title
   id="title117">Sheet.90</title>
					<g
   id="group91-39"
   v:mID="91"
   v:groupContext="group">
						<title
   id="title119">Sheet.91</title>
						<g
   id="shape92-40"
   v:mID="92"
   v:groupContext="shape"
   transform="translate(0.214286,-0.214286)">
							<title
   id="title121">Sheet.92</title>
							<rect
   x="0"
   y="181.429"
   width="17.5714"
   height="17.5714"
   class="st12"
   id="rect123" />
						</g>
						<g
   id="shape93-42"
   v:mID="93"
   v:groupContext="shape">
							<title
   id="title126">Sheet.93</title>
							<path
   d="m 17.57,181.43 v 17.14 H 0.43 V 181.43 Z M 18,181 H 17.57 0.43 0 v 0.43 17.14 0.43 H 0.43 17.57 18 v -0.43 -17.14 z"
   class="st12"
   id="path128" />
						</g>
					</g>
					<g
   id="group94-44"
   transform="translate(0.428571,-0.428571)"
   v:mID="94"
   v:groupContext="group">
						<title
   id="title132">Sheet.94</title>
						<g
   id="shape95-45"
   v:mID="95"
   v:groupContext="shape">
							<title
   id="title134">Sheet.95</title>
							<path
   d="M 0,181.86 V 199 h 17.14 v -17.14 z m 16.5,5.48 H 5.4 v -4.84 h 11.1 z m -15.86,6.17 h 4.12 v 4.89 H 0.64 Z M 4.76,182.5 v 4.89 H 0.64 v -4.89 z m 0,5.49 v 4.88 H 0.64 v -4.88 z m 0.64,10.37 v -4.85 h 11.1 v 4.89 H 5.4 Z m 0,-5.49 v -4.88 h 11.1 v 4.88 z"
   class="st13"
   id="path136" />
						</g>
						<g
   id="shape96-47"
   v:mID="96"
   v:groupContext="shape"
   transform="translate(6,-12.3)">
							<title
   id="title139">Sheet.96</title>
							<path
   d="M 0,199 H 0.73 L 1.11,198.27 1.5,199 h 0.69 l -0.65,-1.16 0.6,-1.07 H 1.46 l -0.35,0.69 -0.38,-0.69 H 0.04 l 0.65,1.07 z"
   class="st13"
   id="path141" />
						</g>
						<g
   id="shape97-49"
   v:mID="97"
   v:groupContext="shape"
   transform="translate(8.52857,-12.3)">
							<title
   id="title144">Sheet.97</title>
							<rect
   x="0"
   y="198.48599"
   width="0.60000002"
   height="0.51428598"
   class="st13"
   id="rect146" />
						</g>
						<g
   id="shape98-51"
   v:mID="98"
   v:groupContext="shape"
   transform="translate(9.6,-12.3)">
							<title
   id="title149">Sheet.98</title>
							<path
   d="M 0.69,199 1.07,198.27 1.46,199 H 2.14 L 1.46,197.84 2.1,196.77 H 1.46 l -0.39,0.69 -0.38,-0.69 H 0 L 0.64,197.84 0,199 Z"
   class="st13"
   id="path151" />
						</g>
						<g
   id="shape99-53"
   v:mID="99"
   v:groupContext="shape"
   transform="translate(11.9571,-12.3)">
							<title
   id="title154">Sheet.99</title>
							<rect
   x="0"
   y="198.48599"
   width="0.60000002"
   height="0.51428598"
   class="st13"
   id="rect156" />
						</g>
						<g
   id="shape100-55"
   v:mID="100"
   v:groupContext="shape"
   transform="translate(12.9,-12.3)">
							<title
   id="title159">Sheet.100</title>
							<path
   d="M 0.69,199 1.07,198.27 1.5,199 H 2.14 L 1.5,197.84 2.1,196.77 H 1.46 l -0.39,0.69 -0.38,-0.69 H 0.04 l 0.6,1.07 L 0,199 Z"
   class="st13"
   id="path161" />
						</g>
						<g
   id="shape101-57"
   v:mID="101"
   v:groupContext="shape"
   transform="translate(15.2571,-12.3)">
							<title
   id="title164">Sheet.101</title>
							<rect
   x="0"
   y="198.48599"
   width="0.60000002"
   height="0.51428598"
   class="st13"
   id="rect166" />
						</g>
						<g
   id="shape102-59"
   v:mID="102"
   v:groupContext="shape"
   transform="translate(6,-6.72857)">
							<title
   id="title169">Sheet.102</title>
							<path
   d="M 2.14,196.77 H 1.46 l -0.35,0.69 -0.38,-0.69 H 0.04 L 0.69,197.84 0,199 H 0.73 L 1.11,198.27 1.5,199 h 0.69 l -0.65,-1.16 z"
   class="st13"
   id="path171" />
						</g>
						<g
   id="shape103-61"
   v:mID="103"
   v:groupContext="shape"
   transform="translate(8.52857,-6.77143)">
							<title
   id="title174">Sheet.103</title>
							<rect
   x="0"
   y="198.48599"
   width="0.60000002"
   height="0.51428598"
   class="st13"
   id="rect176" />
						</g>
						<g
   id="shape104-63"
   v:mID="104"
   v:groupContext="shape"
   transform="translate(9.6,-6.72857)">
							<title
   id="title179">Sheet.104</title>
							<path
   d="M 2.1,196.77 H 1.46 l -0.39,0.69 -0.38,-0.69 H 0 L 0.64,197.84 0,199 h 0.69 l 0.38,-0.73 0.39,0.73 h 0.68 l -0.68,-1.16 z"
   class="st13"
   id="path181" />
						</g>
						<g
   id="shape105-65"
   v:mID="105"
   v:groupContext="shape"
   transform="translate(11.9571,-6.77143)">
							<title
   id="title184">Sheet.105</title>
							<rect
   x="0"
   y="198.48599"
   width="0.60000002"
   height="0.51428598"
   class="st13"
   id="rect186" />
						</g>
						<g
   id="shape106-67"
   v:mID="106"
   v:groupContext="shape"
   transform="translate(12.9,-6.72857)">
							<title
   id="title189">Sheet.106</title>
							<path
   d="M 2.1,196.77 H 1.46 l -0.39,0.69 -0.38,-0.69 H 0.04 l 0.6,1.07 L 0,199 H 0.69 L 1.07,198.27 1.5,199 H 2.14 L 1.5,197.84 Z"
   class="st13"
   id="path191" />
						</g>
						<g
   id="shape107-69"
   v:mID="107"
   v:groupContext="shape"
   transform="translate(15.2571,-6.77143)">
							<title
   id="title194">Sheet.107</title>
							<rect
   x="0"
   y="198.48599"
   width="0.60000002"
   height="0.51428598"
   class="st13"
   id="rect196" />
						</g>
						<g
   id="shape108-71"
   v:mID="108"
   v:groupContext="shape"
   transform="translate(6,-1.28571)">
							<title
   id="title199">Sheet.108</title>
							<path
   d="M 2.14,196.81 H 1.46 l -0.35,0.65 -0.38,-0.65 H 0.04 L 0.69,197.84 0,199 H 0.73 L 1.11,198.27 1.5,199 h 0.69 l -0.65,-1.11 z"
   class="st13"
   id="path201" />
						</g>
						<g
   id="shape109-73"
   v:mID="109"
   v:groupContext="shape"
   transform="translate(8.52857,-1.28571)">
							<title
   id="title204">Sheet.109</title>
							<rect
   x="0"
   y="198.48599"
   width="0.60000002"
   height="0.51428598"
   class="st13"
   id="rect206" />
						</g>
						<g
   id="shape110-75"
   v:mID="110"
   v:groupContext="shape"
   transform="translate(9.6,-1.28571)">
							<title
   id="title209">Sheet.110</title>
							<path
   d="M 2.1,196.81 H 1.46 l -0.39,0.65 -0.38,-0.65 H 0 L 0.64,197.84 0,199 h 0.69 l 0.38,-0.73 0.39,0.73 h 0.68 l -0.68,-1.11 z"
   class="st13"
   id="path211" />
						</g>
						<g
   id="shape111-77"
   v:mID="111"
   v:groupContext="shape"
   transform="translate(11.9571,-1.28571)">
							<title
   id="title214">Sheet.111</title>
							<rect
   x="0"
   y="198.48599"
   width="0.60000002"
   height="0.51428598"
   class="st13"
   id="rect216" />
						</g>
						<g
   id="shape112-79"
   v:mID="112"
   v:groupContext="shape"
   transform="translate(12.9,-1.28571)">
							<title
   id="title219">Sheet.112</title>
							<path
   d="M 2.1,196.81 H 1.46 l -0.39,0.65 -0.38,-0.65 H 0.04 l 0.6,1.03 L 0,199 H 0.69 L 1.07,198.27 1.5,199 H 2.14 L 1.5,197.89 Z"
   class="st13"
   id="path221" />
						</g>
						<g
   id="shape113-81"
   v:mID="113"
   v:groupContext="shape"
   transform="translate(15.2571,-1.28571)">
							<title
   id="title224">Sheet.113</title>
							<rect
   x="0"
   y="198.48599"
   width="0.60000002"
   height="0.51428598"
   class="st13"
   id="rect226" />
						</g>
					</g>
				</g>
			</g>
			<g
   id="group114-83"
   transform="translate(2.09005)"
   v:mID="114"
   v:groupContext="group">
				<title
   id="title232">Security List.987</title>
				<g
   id="group115-84"
   v:mID="115"
   v:groupContext="group">
					<title
   id="title234">Sheet.115</title>
					<g
   id="group116-85"
   v:mID="116"
   v:groupContext="group">
						<title
   id="title236">Sheet.116</title>
						<g
   id="shape117-86"
   v:mID="117"
   v:groupContext="shape"
   transform="translate(0.21327,-0.21327)">
							<title
   id="title238">Sheet.117</title>
							<path
   d="M 6.53,198.91 C 3.2,197.68 1.62,195.55 0.85,193.92 0,192.09 0,190.55 0,190.47 v -6.14 l 6.7,-2.86 6.65,2.86 v 6.18 c 0,0.26 -0.08,6.06 -6.44,8.4 L 6.74,199 Z"
   class="st14"
   id="path240" />
						</g>
						<g
   id="shape118-88"
   v:mID="118"
   v:groupContext="shape">
							<title
   id="title243">Sheet.118</title>
							<path
   d="m 6.91,181.47 6.44,2.77 v 6.06 c 0,0.25 -0.08,5.88 -6.31,8.19 l -0.13,0.04 -0.09,-0.04 C 3.54,197.29 2,195.2 1.28,193.63 0.47,191.88 0.43,190.34 0.43,190.3 v -6.06 z m 0,-0.47 -0.17,0.09 -6.48,2.77 -0.26,0.08 v 0.3 6.06 c 0,0.08 0,1.66 0.9,3.54 0.76,1.62 2.38,3.84 5.8,5.07 l 0.12,0.05 0.13,0.04 0.13,-0.04 0.13,-0.05 c 6.52,-2.38 6.61,-8.36 6.61,-8.61 v -6.06 -0.3 l -0.26,-0.12 -6.48,-2.73 z"
   class="st14"
   id="path245" />
						</g>
					</g>
					<g
   id="group119-90"
   transform="translate(0.42654,-0.469194)"
   v:mID="119"
   v:groupContext="group">
						<title
   id="title249">Sheet.119</title>
						<g
   id="shape120-91"
   v:mID="120"
   v:groupContext="shape"
   transform="translate(0.63981,-0.682464)">
							<title
   id="title251">Sheet.120</title>
							<path
   d="m 0,185.82 v 5.63 c 0,0.04 0,1.45 0.77,3.07 0.98,2.09 2.68,3.58 5.07,4.48 5.72,-2.18 5.8,-7.34 5.8,-7.55 v -5.63 l -5.8,-2.52 z m 5.8,8.4 H 1.92 v -0.64 H 5.8 Z m 0,-2.9 H 1.92 v -0.64 H 5.8 Z m 0,-3.11 H 1.92 v -0.64 H 5.8 Z m 1.75,-0.64 0.51,0.51 1.28,-1.28 0.43,0.43 -1.71,1.7 L 7.12,188 Z m 1.96,4.05 -0.42,0.43 -0.64,-0.64 -0.64,0.64 -0.43,-0.43 0.64,-0.64 -0.64,-0.64 0.43,-0.43 0.64,0.64 0.64,-0.64 0.42,0.43 -0.64,0.64 z m -1.96,1.96 0.51,0.51 1.28,-1.27 0.43,0.42 -1.71,1.71 -0.94,-0.94 z"
   class="st15"
   id="path253" />
						</g>
						<g
   id="shape121-93"
   v:mID="121"
   v:groupContext="shape">
							<title
   id="title256">Sheet.121</title>
							<path
   d="M 6.48,181.94 0,184.71 v 6.06 c 0,0.04 0,1.58 0.85,3.32 0.73,1.58 2.31,3.67 5.55,4.87 l 0.13,0.04 0.12,-0.04 c 6.23,-2.31 6.32,-7.98 6.32,-8.19 v -6.06 z m 5.8,8.83 c 0,0.21 -0.08,5.37 -5.8,7.55 -2.39,-0.9 -4.09,-2.39 -5.07,-4.48 -0.77,-1.66 -0.77,-3.03 -0.77,-3.07 v -5.63 l 5.84,-2.52 5.8,2.52 z"
   class="st16"
   id="path258" />
						</g>
						<g
   id="shape122-95"
   v:mID="122"
   v:groupContext="shape"
   transform="translate(2.55924,-11.4739)">
							<title
   id="title261">Sheet.122</title>
							<rect
   x="0"
   y="198.36"
   width="3.88151"
   height="0.63981003"
   class="st16"
   id="rect263" />
						</g>
						<g
   id="shape123-97"
   v:mID="123"
   v:groupContext="shape"
   transform="translate(7.72038,-10.7062)">
							<title
   id="title266">Sheet.123</title>
							<path
   d="M 2.69,197.29 2.22,196.87 0.98,198.1 0.47,197.59 0,198.06 0.98,199 Z"
   class="st16"
   id="path268" />
						</g>
						<g
   id="shape124-99"
   v:mID="124"
   v:groupContext="shape"
   transform="translate(2.55924,-8.36019)">
							<title
   id="title271">Sheet.124</title>
							<rect
   x="0"
   y="198.36"
   width="3.88151"
   height="0.63981003"
   class="st16"
   id="rect273" />
						</g>
						<g
   id="shape125-101"
   v:mID="125"
   v:groupContext="shape"
   transform="translate(7.9763,-7.59241)">
							<title
   id="title276">Sheet.125</title>
							<path
   d="M 1.75,196.78 1.11,197.46 0.43,196.78 0,197.25 0.64,197.89 0,198.53 0.43,199 1.11,198.36 1.75,199 2.18,198.53 1.54,197.89 2.18,197.25 Z"
   class="st16"
   id="path278" />
						</g>
						<g
   id="shape126-103"
   v:mID="126"
   v:groupContext="shape"
   transform="translate(2.55924,-5.45971)">
							<title
   id="title281">Sheet.126</title>
							<rect
   x="0"
   y="198.36"
   width="3.88151"
   height="0.63981003"
   class="st16"
   id="rect283" />
						</g>
						<g
   id="shape127-105"
   v:mID="127"
   v:groupContext="shape"
   transform="translate(7.72038,-4.69194)">
							<title
   id="title286">Sheet.127</title>
							<path
   d="M 2.69,197.29 2.22,196.87 0.98,198.1 0.47,197.59 0,198.06 0.98,199 Z"
   class="st16"
   id="path288" />
						</g>
					</g>
				</g>
			</g>
		</g>
		<g
   id="group160-107"
   transform="translate(372.058,-59)"
   v:mID="160"
   v:groupContext="group">
			<title
   id="title295">Sheet.160</title>
			<g
   id="group131-108"
   v:mID="131"
   v:groupContext="group">
				<title
   id="title297">Bare Metal Compute.91</title>
				<g
   id="group132-109"
   transform="translate(11.2283,-20.1142)"
   v:mID="132"
   v:groupContext="group">
					<title
   id="title299">Bare Metal Compute</title>
					<g
   id="group133-110"
   v:mID="133"
   v:groupContext="group">
						<title
   id="title301">Sheet.133</title>
						<g
   id="group134-111"
   v:mID="134"
   v:groupContext="group">
							<title
   id="title303">Sheet.134</title>
							<g
   id="shape135-112"
   v:mID="135"
   v:groupContext="shape"
   transform="translate(0.428234,-0.419669)">
								<title
   id="title305">Sheet.135</title>
								<path
   d="M 1.86,198.99 C 0.84,198.99 0,198.16 0,197.13 v -31.4 c 0,-1.01 0.83,-1.85 1.86,-1.85 h 31.41 c 1.01,0 1.85,0.83 1.85,1.85 v 31.41 c 0,1.02 -0.83,1.86 -1.85,1.86 H 1.86 Z"
   class="st12"
   id="path307" />
							</g>
							<g
   id="shape136-114"
   v:mID="136"
   v:groupContext="shape">
								<title
   id="title310">Sheet.136</title>
								<path
   d="m 33.68,163.88 c 0.79,0 1.44,0.65 1.44,1.44 v 31.4 c 0,0.79 -0.65,1.43 -1.44,1.43 H 2.29 C 1.5,198.14 0.86,197.5 0.86,196.71 v -31.39 c 0,-0.79 0.64,-1.44 1.43,-1.44 z m 0,-0.85 H 2.29 c -1.26,0 -2.29,1.03 -2.29,2.29 v 31.4 c 0,1.25 1.03,2.28 2.29,2.28 h 31.4 c 1.25,0 2.28,-1.03 2.28,-2.29 v -31.39 c 0,-1.26 -1.03,-2.29 -2.29,-2.29 z"
   class="st12"
   id="path312" />
							</g>
						</g>
						<g
   id="group137-116"
   transform="translate(0.856468,-0.856468)"
   v:mID="137"
   v:groupContext="group">
							<title
   id="title316">Sheet.137</title>
							<g
   id="shape138-117"
   v:mID="138"
   v:groupContext="shape">
								<title
   id="title318">Sheet.138</title>
								<path
   d="M 32.83,164.74 H 1.43 c -0.79,0 -1.43,0.64 -1.43,1.43 v 31.41 c 0,0.78 0.64,1.42 1.43,1.42 h 31.41 c 0.78,0 1.43,-0.64 1.43,-1.43 v -31.4 c -0.01,-0.79 -0.65,-1.43 -1.44,-1.43 z m 0.16,32.83 c 0,0.09 -0.07,0.16 -0.16,0.16 H 1.43 c -0.09,0 -0.16,-0.07 -0.16,-0.16 v -31.4 c 0,-0.08 0.07,-0.16 0.16,-0.16 h 31.41 c 0.08,0 0.16,0.07 0.16,0.16 v 31.4 z"
   class="st17"
   id="path320" />
							</g>
							<g
   id="shape139-119"
   v:mID="139"
   v:groupContext="shape"
   transform="translate(3.80272,-3.96545)">
								<title
   id="title323">Sheet.139</title>
								<path
   d="m 0,199 h 26.64 v -7.61 H 0 Z m 1.28,-6.35 h 24.11 v 5.08 H 1.28 Z"
   class="st17"
   id="path325" />
							</g>
							<g
   id="shape140-121"
   v:mID="140"
   v:groupContext="shape"
   transform="translate(25.3771,-6.81748)">
								<title
   id="title328">Sheet.140</title>
								<circle
   cx="0.950679"
   cy="198.049"
   class="st17"
   id="ellipse330"
   r="0.950679" />
							</g>
							<g
   id="shape141-123"
   v:mID="141"
   v:groupContext="shape"
   transform="translate(3.80272,-22.842)">
								<title
   id="title333">Sheet.141</title>
								<path
   d="m 0,199 h 26.64 v -7.61 H 0 Z m 1.28,-6.34 h 24.11 v 5.08 H 1.28 Z"
   class="st17"
   id="path335" />
							</g>
							<g
   id="shape142-125"
   v:mID="142"
   v:groupContext="shape"
   transform="translate(25.3771,-25.694)">
								<title
   id="title338">Sheet.142</title>
								<circle
   cx="0.950679"
   cy="198.049"
   class="st17"
   id="ellipse340"
   r="0.950679" />
							</g>
							<g
   id="shape143-127"
   v:mID="143"
   v:groupContext="shape"
   transform="translate(3.80272,-13.3266)">
								<title
   id="title343">Sheet.143</title>
								<path
   d="m 0,199 h 26.64 v -7.61 H 0 Z m 1.28,-6.34 h 24.11 v 5.08 H 1.28 Z"
   class="st17"
   id="path345" />
							</g>
							<g
   id="shape144-129"
   v:mID="144"
   v:groupContext="shape"
   transform="translate(25.3771,-16.1787)">
								<title
   id="title348">Sheet.144</title>
								<circle
   cx="0.950679"
   cy="198.049"
   class="st17"
   id="ellipse350"
   r="0.950679" />
							</g>
						</g>
					</g>
				</g>
				<g
   id="shape145-131"
   v:mID="145"
   v:groupContext="shape">
					<title
   id="title356">Sheet.145</title>
					<desc
   id="desc358">Bare Metal Compute</desc>
					<v:textBlock
   v:margins="rect(4,4,4,4)" />
					<v:textRect
   cx="29.25"
   cy="189"
   width="58.5"
   height="20" />
					<rect
   x="0"
   y="179"
   width="58.5"
   height="20"
   class="st18"
   id="rect360" />
					<text
   x="9.8599997"
   y="186.60001"
   class="st19"
   v:langID="1033"
   id="text364"><v:paragraph
   v:horizAlign="1"
   v:bulletSize="0.166667" /><v:tabList />Bare Metal <tspan
   x="12.59"
   dy="1.2em"
   class="st11"
   id="tspan362">Compute</tspan></text>				</g>
			</g>
			<g
   id="group146-135"
   transform="translate(44.1386,-7.16277)"
   v:mID="146"
   v:groupContext="group">
				<title
   id="title368">Block Storage.100</title>
				<g
   id="group147-136"
   transform="translate(15.8582,-12.9231)"
   v:mID="147"
   v:groupContext="group">
					<title
   id="title370">Block Storage</title>
					<g
   id="group148-137"
   v:mID="148"
   v:groupContext="group">
						<title
   id="title372">Sheet.148</title>
						<g
   id="group149-138"
   v:mID="149"
   v:groupContext="group">
							<title
   id="title374">Sheet.149</title>
							<g
   id="shape150-139"
   v:mID="150"
   v:groupContext="shape"
   transform="translate(0.428571,-0.42)">
								<title
   id="title376">Sheet.150</title>
								<path
   d="M 1.86,198.99 C 0.84,198.99 0,198.16 0,197.13 v -31.42 c 0,-1.03 0.83,-1.86 1.86,-1.86 h 31.43 c 1.02,0 1.86,0.83 1.86,1.86 v 31.43 c 0,1.03 -0.83,1.86 -1.86,1.86 H 1.86 Z"
   class="st12"
   id="path378" />
							</g>
							<g
   id="shape151-141"
   v:mID="151"
   v:groupContext="shape">
								<title
   id="title381">Sheet.151</title>
								<path
   d="m 33.71,163.86 c 0.79,0 1.43,0.64 1.43,1.43 v 0.83 0.21 30.39 c 0,0.79 -0.64,1.43 -1.43,1.43 H 2.29 C 1.5,198.14 0.86,197.5 0.86,196.71 v -30.39 -0.2 -0.83 c 0,-0.79 0.64,-1.43 1.43,-1.43 z m 0,-0.86 H 2.29 C 1.03,163 0,164.03 0,165.29 v 0.83 0.21 30.39 c 0,1.25 1.03,2.28 2.29,2.28 h 31.43 c 1.25,0 2.28,-1.03 2.28,-2.29 v -30.39 -0.2 -0.83 C 36,164.03 34.97,163 33.71,163 Z"
   class="st12"
   id="path383" />
							</g>
						</g>
						<g
   id="group152-143"
   transform="translate(0.857143,-0.857143)"
   v:mID="152"
   v:groupContext="group">
							<title
   id="title387">Sheet.152</title>
							<g
   id="shape153-144"
   v:mID="153"
   v:groupContext="shape"
   transform="translate(5.48571,-16.5429)">
								<title
   id="title389">Sheet.153</title>
								<path
   d="M 10.67,188.51 H 0 V 199 H 10.67 Z M 9.4,197.73 H 1.28 v -7.95 H 9.4 Z"
   class="st17"
   id="path391" />
							</g>
							<g
   id="shape154-146"
   v:mID="154"
   v:groupContext="shape"
   transform="translate(18.18,-16.5429)">
								<title
   id="title394">Sheet.154</title>
								<path
   d="M 10.67,188.51 H 0 V 199 h 10.67 z m -1.28,9.22 H 1.27 v -7.95 h 8.12 z"
   class="st17"
   id="path396" />
							</g>
							<g
   id="shape155-148"
   v:mID="155"
   v:groupContext="shape"
   transform="translate(5.48571,-4.08857)">
								<title
   id="title399">Sheet.155</title>
								<path
   d="M 10.67,188.51 H 0 V 199 H 10.67 Z M 9.4,197.73 H 1.28 v -7.95 H 9.4 Z"
   class="st17"
   id="path401" />
							</g>
							<g
   id="shape156-150"
   v:mID="156"
   v:groupContext="shape"
   transform="translate(18.18,-4.08857)">
								<title
   id="title404">Sheet.156</title>
								<path
   d="M 10.67,188.51 H 0 V 199 h 10.67 z m -1.28,9.22 H 1.27 v -7.95 h 8.12 z"
   class="st17"
   id="path406" />
							</g>
							<g
   id="shape157-152"
   v:mID="157"
   v:groupContext="shape">
								<title
   id="title409">Sheet.157</title>
								<path
   d="m 0,197.57 c 0,0.79 0.64,1.43 1.43,1.43 h 31.43 c 0.79,0 1.43,-0.64 1.43,-1.43 V 168.13 H 0 Z M 1.27,169.4 h 31.75 v 28.18 c 0,0.08 -0.07,0.16 -0.17,0.16 H 1.43 c -0.08,0 -0.16,-0.07 -0.16,-0.16 z"
   class="st17"
   id="path411" />
							</g>
							<g
   id="shape158-154"
   v:mID="158"
   v:groupContext="shape"
   transform="translate(0,-31.8171)">
								<title
   id="title414">Sheet.158</title>
								<path
   d="M 32.85,196.53 H 1.43 C 0.64,196.53 0,197.17 0,197.96 V 199 h 34.29 v -1.04 c 0,-0.79 -0.65,-1.43 -1.44,-1.43 z"
   class="st17"
   id="path416" />
							</g>
						</g>
					</g>
				</g>
				<g
   id="shape159-156"
   v:mID="159"
   v:groupContext="shape">
					<title
   id="title422">Sheet.159</title>
					<desc
   id="desc424">Block Storage</desc>
					<v:textBlock
   v:margins="rect(4,4,4,4)" />
					<v:textRect
   cx="33.8582"
   cy="192.539"
   width="67.72"
   height="12.9231" />
					<rect
   x="0"
   y="186.077"
   width="67.716301"
   height="12.9231"
   class="st18"
   id="rect426" />
					<text
   x="9.04"
   y="194.94"
   class="st20"
   v:langID="1033"
   id="text428"><v:paragraph
   v:horizAlign="1"
   v:bulletSize="0.166667" /><v:tabList />Block Storage</text>				</g>
			</g>
		</g>
		<g
   id="group161-159"
   transform="translate(494.199,-59)"
   v:mID="161"
   v:groupContext="group">
			<title
   id="title433">Sheet.161</title>
			<g
   id="group162-160"
   v:mID="162"
   v:groupContext="group">
				<title
   id="title435">Bare Metal Compute.91</title>
				<g
   id="group163-161"
   transform="translate(11.2283,-20.1142)"
   v:mID="163"
   v:groupContext="group">
					<title
   id="title437">Bare Metal Compute</title>
					<g
   id="group164-162"
   v:mID="164"
   v:groupContext="group">
						<title
   id="title439">Sheet.164</title>
						<g
   id="group165-163"
   v:mID="165"
   v:groupContext="group">
							<title
   id="title441">Sheet.165</title>
							<g
   id="shape166-164"
   v:mID="166"
   v:groupContext="shape"
   transform="translate(0.428234,-0.419669)">
								<title
   id="title443">Sheet.166</title>
								<path
   d="M 1.86,198.99 C 0.84,198.99 0,198.16 0,197.13 v -31.4 c 0,-1.01 0.83,-1.85 1.86,-1.85 h 31.41 c 1.01,0 1.85,0.83 1.85,1.85 v 31.41 c 0,1.02 -0.83,1.86 -1.85,1.86 H 1.86 Z"
   class="st12"
   id="path445" />
							</g>
							<g
   id="shape167-166"
   v:mID="167"
   v:groupContext="shape">
								<title
   id="title448">Sheet.167</title>
								<path
   d="m 33.68,163.88 c 0.79,0 1.44,0.65 1.44,1.44 v 31.4 c 0,0.79 -0.65,1.43 -1.44,1.43 H 2.29 C 1.5,198.14 0.86,197.5 0.86,196.71 v -31.39 c 0,-0.79 0.64,-1.44 1.43,-1.44 z m 0,-0.85 H 2.29 c -1.26,0 -2.29,1.03 -2.29,2.29 v 31.4 c 0,1.25 1.03,2.28 2.29,2.28 h 31.4 c 1.25,0 2.28,-1.03 2.28,-2.29 v -31.39 c 0,-1.26 -1.03,-2.29 -2.29,-2.29 z"
   class="st12"
   id="path450" />
							</g>
						</g>
						<g
   id="group168-168"
   transform="translate(0.856468,-0.856468)"
   v:mID="168"
   v:groupContext="group">
							<title
   id="title454">Sheet.168</title>
							<g
   id="shape169-169"
   v:mID="169"
   v:groupContext="shape">
								<title
   id="title456">Sheet.169</title>
								<path
   d="M 32.83,164.74 H 1.43 c -0.79,0 -1.43,0.64 -1.43,1.43 v 31.41 c 0,0.78 0.64,1.42 1.43,1.42 h 31.41 c 0.78,0 1.43,-0.64 1.43,-1.43 v -31.4 c -0.01,-0.79 -0.65,-1.43 -1.44,-1.43 z m 0.16,32.83 c 0,0.09 -0.07,0.16 -0.16,0.16 H 1.43 c -0.09,0 -0.16,-0.07 -0.16,-0.16 v -31.4 c 0,-0.08 0.07,-0.16 0.16,-0.16 h 31.41 c 0.08,0 0.16,0.07 0.16,0.16 v 31.4 z"
   class="st17"
   id="path458" />
							</g>
							<g
   id="shape170-171"
   v:mID="170"
   v:groupContext="shape"
   transform="translate(3.80272,-3.96545)">
								<title
   id="title461">Sheet.170</title>
								<path
   d="m 0,199 h 26.64 v -7.61 H 0 Z m 1.28,-6.35 h 24.11 v 5.08 H 1.28 Z"
   class="st17"
   id="path463" />
							</g>
							<g
   id="shape171-173"
   v:mID="171"
   v:groupContext="shape"
   transform="translate(25.3771,-6.81748)">
								<title
   id="title466">Sheet.171</title>
								<circle
   cx="0.950679"
   cy="198.049"
   class="st17"
   id="ellipse468"
   r="0.950679" />
							</g>
							<g
   id="shape172-175"
   v:mID="172"
   v:groupContext="shape"
   transform="translate(3.80272,-22.842)">
								<title
   id="title471">Sheet.172</title>
								<path
   d="m 0,199 h 26.64 v -7.61 H 0 Z m 1.28,-6.34 h 24.11 v 5.08 H 1.28 Z"
   class="st17"
   id="path473" />
							</g>
							<g
   id="shape173-177"
   v:mID="173"
   v:groupContext="shape"
   transform="translate(25.3771,-25.694)">
								<title
   id="title476">Sheet.173</title>
								<circle
   cx="0.950679"
   cy="198.049"
   class="st17"
   id="ellipse478"
   r="0.950679" />
							</g>
							<g
   id="shape174-179"
   v:mID="174"
   v:groupContext="shape"
   transform="translate(3.80272,-13.3266)">
								<title
   id="title481">Sheet.174</title>
								<path
   d="m 0,199 h 26.64 v -7.61 H 0 Z m 1.28,-6.34 h 24.11 v 5.08 H 1.28 Z"
   class="st17"
   id="path483" />
							</g>
							<g
   id="shape175-181"
   v:mID="175"
   v:groupContext="shape"
   transform="translate(25.3771,-16.1787)">
								<title
   id="title486">Sheet.175</title>
								<circle
   cx="0.950679"
   cy="198.049"
   class="st17"
   id="ellipse488"
   r="0.950679" />
							</g>
						</g>
					</g>
				</g>
				<g
   id="shape176-183"
   v:mID="176"
   v:groupContext="shape">
					<title
   id="title494">Sheet.176</title>
					<desc
   id="desc496">Bare Metal Compute</desc>
					<v:textBlock
   v:margins="rect(4,4,4,4)" />
					<v:textRect
   cx="29.25"
   cy="189"
   width="58.5"
   height="20" />
					<rect
   x="0"
   y="179"
   width="58.5"
   height="20"
   class="st18"
   id="rect498" />
					<text
   x="9.8599997"
   y="186.60001"
   class="st19"
   v:langID="1033"
   id="text502"><v:paragraph
   v:horizAlign="1"
   v:bulletSize="0.166667" /><v:tabList />Bare Metal <tspan
   x="12.59"
   dy="1.2em"
   class="st11"
   id="tspan500">Compute</tspan></text>				</g>
			</g>
			<g
   id="group177-187"
   transform="translate(44.1386,-7.16277)"
   v:mID="177"
   v:groupContext="group">
				<title
   id="title506">Block Storage.100</title>
				<g
   id="group178-188"
   transform="translate(15.8582,-12.9231)"
   v:mID="178"
   v:groupContext="group">
					<title
   id="title508">Block Storage</title>
					<g
   id="group179-189"
   v:mID="179"
   v:groupContext="group">
						<title
   id="title510">Sheet.179</title>
						<g
   id="group180-190"
   v:mID="180"
   v:groupContext="group">
							<title
   id="title512">Sheet.180</title>
							<g
   id="shape181-191"
   v:mID="181"
   v:groupContext="shape"
   transform="translate(0.428571,-0.42)">
								<title
   id="title514">Sheet.181</title>
								<path
   d="M 1.86,198.99 C 0.84,198.99 0,198.16 0,197.13 v -31.42 c 0,-1.03 0.83,-1.86 1.86,-1.86 h 31.43 c 1.02,0 1.86,0.83 1.86,1.86 v 31.43 c 0,1.03 -0.83,1.86 -1.86,1.86 H 1.86 Z"
   class="st12"
   id="path516" />
							</g>
							<g
   id="shape182-193"
   v:mID="182"
   v:groupContext="shape">
								<title
   id="title519">Sheet.182</title>
								<path
   d="m 33.71,163.86 c 0.79,0 1.43,0.64 1.43,1.43 v 0.83 0.21 30.39 c 0,0.79 -0.64,1.43 -1.43,1.43 H 2.29 C 1.5,198.14 0.86,197.5 0.86,196.71 v -30.39 -0.2 -0.83 c 0,-0.79 0.64,-1.43 1.43,-1.43 z m 0,-0.86 H 2.29 C 1.03,163 0,164.03 0,165.29 v 0.83 0.21 30.39 c 0,1.25 1.03,2.28 2.29,2.28 h 31.43 c 1.25,0 2.28,-1.03 2.28,-2.29 v -30.39 -0.2 -0.83 C 36,164.03 34.97,163 33.71,163 Z"
   class="st12"
   id="path521" />
							</g>
						</g>
						<g
   id="group183-195"
   transform="translate(0.857143,-0.857143)"
   v:mID="183"
   v:groupContext="group">
							<title
   id="title525">Sheet.183</title>
							<g
   id="shape184-196"
   v:mID="184"
   v:groupContext="shape"
   transform="translate(5.48571,-16.5429)">
								<title
   id="title527">Sheet.184</title>
								<path
   d="M 10.67,188.51 H 0 V 199 H 10.67 Z M 9.4,197.73 H 1.28 v -7.95 H 9.4 Z"
   class="st17"
   id="path529" />
							</g>
							<g
   id="shape185-198"
   v:mID="185"
   v:groupContext="shape"
   transform="translate(18.18,-16.5429)">
								<title
   id="title532">Sheet.185</title>
								<path
   d="M 10.67,188.51 H 0 V 199 h 10.67 z m -1.28,9.22 H 1.27 v -7.95 h 8.12 z"
   class="st17"
   id="path534" />
							</g>
							<g
   id="shape186-200"
   v:mID="186"
   v:groupContext="shape"
   transform="translate(5.48571,-4.08857)">
								<title
   id="title537">Sheet.186</title>
								<path
   d="M 10.67,188.51 H 0 V 199 H 10.67 Z M 9.4,197.73 H 1.28 v -7.95 H 9.4 Z"
   class="st17"
   id="path539" />
							</g>
							<g
   id="shape187-202"
   v:mID="187"
   v:groupContext="shape"
   transform="translate(18.18,-4.08857)">
								<title
   id="title542">Sheet.187</title>
								<path
   d="M 10.67,188.51 H 0 V 199 h 10.67 z m -1.28,9.22 H 1.27 v -7.95 h 8.12 z"
   class="st17"
   id="path544" />
							</g>
							<g
   id="shape188-204"
   v:mID="188"
   v:groupContext="shape">
								<title
   id="title547">Sheet.188</title>
								<path
   d="m 0,197.57 c 0,0.79 0.64,1.43 1.43,1.43 h 31.43 c 0.79,0 1.43,-0.64 1.43,-1.43 V 168.13 H 0 Z M 1.27,169.4 h 31.75 v 28.18 c 0,0.08 -0.07,0.16 -0.17,0.16 H 1.43 c -0.08,0 -0.16,-0.07 -0.16,-0.16 z"
   class="st17"
   id="path549" />
							</g>
							<g
   id="shape189-206"
   v:mID="189"
   v:groupContext="shape"
   transform="translate(0,-31.8171)">
								<title
   id="title552">Sheet.189</title>
								<path
   d="M 32.85,196.53 H 1.43 C 0.64,196.53 0,197.17 0,197.96 V 199 h 34.29 v -1.04 c 0,-0.79 -0.65,-1.43 -1.44,-1.43 z"
   class="st17"
   id="path554" />
							</g>
						</g>
					</g>
				</g>
				<g
   id="shape190-208"
   v:mID="190"
   v:groupContext="shape">
					<title
   id="title560">Sheet.190</title>
					<desc
   id="desc562">Block Storage</desc>
					<v:textBlock
   v:margins="rect(4,4,4,4)" />
					<v:textRect
   cx="33.8582"
   cy="192.539"
   width="67.72"
   height="12.9231" />
					<rect
   x="0"
   y="186.077"
   width="67.716301"
   height="12.9231"
   class="st18"
   id="rect564" />
					<text
   x="9.04"
   y="194.94"
   class="st20"
   v:langID="1033"
   id="text566"><v:paragraph
   v:horizAlign="1"
   v:bulletSize="0.166667" /><v:tabList />Block Storage</text>				</g>
			</g>
		</g>
		<g
   id="group211-211"
   transform="translate(257.092,-56.25)"
   v:mID="211"
   v:groupContext="group">
			<title
   id="title571">Internet Gateway</title>
			<g
   id="shape212-212"
   v:mID="212"
   v:groupContext="shape"
   transform="translate(0.532665,0.749978)">
				<title
   id="title573">Sheet.212</title>
				<desc
   id="desc575">Internet Gateway</desc>
				<v:textBlock
   v:margins="rect(4,4,4,4)" />
				<v:textRect
   cx="21.375"
   cy="188.625"
   width="42.75"
   height="20.75" />
				<rect
   x="0"
   y="178.25"
   width="42.75"
   height="20.75"
   class="st18"
   id="rect577" />
				<text
   x="7.1300001"
   y="186.23"
   class="st19"
   v:langID="1033"
   id="text581"><v:paragraph
   v:horizAlign="1"
   v:bulletSize="0.166667" /><v:tabList />Internet <tspan
   x="5.8600001"
   dy="1.2em"
   class="st11"
   id="tspan579">Gateway</tspan></text>			</g>
			<g
   id="group213-216"
   transform="translate(0,-20.5661)"
   v:mID="213"
   v:groupContext="group">
				<title
   id="title584">Internet Gateway</title>
				<g
   id="shape214-217"
   v:mID="214"
   v:groupContext="shape"
   transform="translate(0.559583,-0.816991)">
					<title
   id="title586">Sheet.214</title>
					<path
   d="m 16.84,194.41 1.63,-1.58 c -0.34,-0.05 -0.68,-0.12 -1.01,-0.21 l -0.44,-0.1 c -0.3,-0.08 -0.59,-0.17 -0.88,-0.27 a 5.59583,5.59583 0 0 1 -0.57,-0.19 l -0.71,-0.28 -0.7,-0.3 -0.46,-0.22 -0.9,-0.49 -0.32,-0.2 c -0.35,-0.21 -0.65,-0.4 -0.93,-0.6 l -0.48,-0.35 -0.48,-0.36 -0.46,-0.38 a 17.3247,17.3247 0 0 1 -1.74,-1.71 l -0.4,-0.46 -0.36,-0.48 -0.36,-0.47 c -0.2,-0.29 -0.39,-0.58 -0.58,-0.88 L 6.47,184.5 c -0.16,-0.27 -0.3,-0.54 -0.45,-0.82 -0.14,-0.28 -0.18,-0.36 -0.26,-0.53 -0.07,-0.17 -0.21,-0.47 -0.3,-0.7 -0.09,-0.24 -0.2,-0.47 -0.28,-0.71 a 4.47666,4.47666 0 0 1 -0.14,-0.5 C 4.91,180.88 4.82,180.59 4.75,180.29 L 4.66,179.86 C 4.58,179.53 4.5,179.18 4.44,178.83 l -0.09,-0.56 c 0,-0.2 -0.06,-0.4 -0.09,-0.61 v -0.54 H 0 v -2.53 h 4.23 v -0.54 c 0,-0.21 0.06,-0.41 0.09,-0.61 l 0.09,-0.56 c 0,-0.35 0.13,-0.7 0.22,-1.04 0.09,-0.35 0.07,-0.32 0.1,-0.43 0.08,-0.3 0.17,-0.59 0.27,-0.89 0.1,-0.3 0.13,-0.37 0.18,-0.56 0.06,-0.19 0.19,-0.48 0.29,-0.72 0.1,-0.23 0.19,-0.46 0.3,-0.69 0.12,-0.24 0.18,-0.36 0.27,-0.54 0.09,-0.18 0.28,-0.54 0.44,-0.81 l 0.23,-0.39 c 0.18,-0.29 0.37,-0.58 0.58,-0.87 l 0.34,-0.47 c 0.11,-0.17 0.24,-0.34 0.36,-0.49 l 0.4,-0.47 a 16.1607,16.1607 0 0 1 1.74,-1.67 l 0.45,-0.39 0.5,-0.37 0.45,-0.34 c 0.29,-0.2 0.59,-0.39 0.88,-0.57 l 0.38,-0.23 0.83,-0.45 0.53,-0.26 c 0.23,-0.11 0.46,-0.21 0.7,-0.3 l 0.71,-0.29 0.5,-0.17 0.95,-0.28 0.43,-0.11 1.03,-0.22 -1.63,-1.59 4.59,-4.59 4.6,4.59 -1.6,1.59 1.01,0.21 0.44,0.11 c 0.3,0.08 0.59,0.17 0.88,0.27 l 0.57,0.18 0.71,0.29 0.7,0.3 c 0.15,0.07 0.29,0.14 0.43,0.21 l 0.11,0.06 c 0.27,0.13 0.53,0.28 0.8,0.44 l 0.33,0.19 0.94,0.61 0.49,0.36 0.47,0.35 0.46,0.38 a 15.9481,15.9481 0 0 1 1.69,1.68 l 0.4,0.47 c 0.13,0.15 0.25,0.32 0.36,0.49 l 0.35,0.47 c 0.2,0.29 0.39,0.58 0.57,0.87 l 0.23,0.38 c 0.16,0.27 0.31,0.55 0.44,0.82 l 0.27,0.54 c 0.11,0.23 0.21,0.46 0.3,0.7 0.1,0.24 0.2,0.47 0.28,0.71 0.08,0.23 0.12,0.34 0.18,0.52 0.05,0.18 0.2,0.63 0.28,0.93 l 0.1,0.43 c 0.09,0.34 0.16,0.69 0.22,1.04 l 0.09,0.56 a 5.43914,5.43914 0 0 1 0.08,0.61 v 0.54 h 4.22 v 2.52 h -4.22 v 0.52 a 5.59583,5.59583 0 0 1 -0.08,0.61 l -0.09,0.57 c -0.06,0.35 -0.13,0.69 -0.22,1.03 l -0.1,0.44 c -0.08,0.3 -0.17,0.59 -0.27,0.88 a 5.59583,5.59583 0 0 1 -0.19,0.57 c -0.08,0.24 -0.18,0.47 -0.28,0.71 -0.1,0.23 -0.19,0.47 -0.3,0.7 l -0.25,0.49 c -0.15,0.32 -0.3,0.58 -0.46,0.85 l -0.23,0.38 c -0.18,0.31 -0.37,0.6 -0.57,0.89 l -0.34,0.46 -0.37,0.5 -0.39,0.48 a 17.0897,17.0897 0 0 1 -1.72,1.64 l -0.45,0.39 -0.47,0.34 -0.49,0.36 c -0.29,0.2 -0.59,0.39 -0.89,0.57 l -0.37,0.24 c -0.28,0.15 -0.55,0.3 -0.83,0.43 h -0.1 l -0.42,0.22 -0.71,0.3 -0.7,0.28 -0.57,0.19 c -0.29,0.1 -0.58,0.19 -0.89,0.27 l -0.43,0.1 c -0.34,0.09 -0.67,0.16 -1.01,0.21 l 1.61,1.69 -4.6,4.59 z m 5.86,-0.21 1.36,-1.3 h -0.15 a 5.78609,5.78609 0 0 1 -0.62,0.08 h -0.54 z m -2.52,0 v -1.12 H 19.64 A 5.43914,5.43914 0 0 1 19.03,193 h -0.16 z m 3.05,-35.52 0.62,0.09 h 0.16 l -1.31,-1.29 v 1.12 z m -4.36,0.11 h 0.16 l 0.61,-0.09 0.54,-0.1 v -1.12 z"
   class="st21"
   id="path588" />
				</g>
				<g
   id="shape215-219"
   v:mID="215"
   v:groupContext="shape">
					<title
   id="title591">Sheet.215</title>
					<path
   d="m 21.99,152.64 1.69,1.69 0.06,0.06 2.06,2.06 -0.99,0.98 -1.12,-1.11 -1.04,-1.06 v 3.1 l 1.04,0.08 0.81,0.12 h 0.33 c 0.34,0 0.66,0.14 1,0.22 l 0.41,0.1 0.87,0.26 0.54,0.17 0.69,0.28 0.76,0.32 0.51,0.26 c 0.27,0.13 0.53,0.26 0.79,0.42 l 0.37,0.22 c 0.29,0.18 0.58,0.36 0.86,0.56 l 0.26,0.21 c 0.22,0.15 0.44,0.31 0.66,0.48 a 17.0673,17.0673 0 0 1 2.46,2.46 c 0.17,0.21 0.32,0.44 0.48,0.65 l 0.2,0.27 c 0.2,0.28 0.38,0.57 0.56,0.86 0.18,0.29 0.15,0.23 0.22,0.37 0.08,0.13 0.29,0.51 0.43,0.78 0.13,0.27 0.17,0.35 0.26,0.52 0.09,0.16 0.2,0.44 0.29,0.68 0.09,0.23 0.19,0.45 0.27,0.68 0.07,0.24 0.12,0.37 0.19,0.55 0.06,0.18 0.18,0.57 0.25,0.86 l 0.1,0.42 c 0.08,0.33 0.15,0.66 0.22,0.99 0,0.11 0,0.23 0,0.34 0,0.11 0.09,0.53 0.12,0.8 0,0.35 0.02,0.7 0.07,1.04 h 4.22 v 1.36 h -4.23 c 0,0.35 -0.03,0.7 -0.07,1.04 0,0.27 -0.08,0.54 -0.12,0.8 -0.05,0.27 0,0.23 0,0.34 -0.07,0.34 -0.14,0.66 -0.22,1 l -0.1,0.41 c -0.08,0.29 -0.17,0.57 -0.26,0.86 -0.08,0.29 -0.12,0.36 -0.19,0.55 -0.06,0.19 -0.17,0.46 -0.26,0.68 -0.09,0.23 -0.19,0.46 -0.29,0.69 l -0.26,0.51 -0.43,0.78 -0.22,0.37 c -0.18,0.29 -0.36,0.57 -0.56,0.85 l -0.2,0.28 c -0.16,0.22 -0.32,0.44 -0.48,0.65 a 17.0673,17.0673 0 0 1 -2.54,2.5 c -0.22,0.17 -0.44,0.32 -0.66,0.48 l -0.26,0.2 c -0.28,0.2 -0.57,0.38 -0.86,0.56 l -0.37,0.22 c -0.26,0.15 -0.52,0.3 -0.79,0.43 l -0.51,0.26 -0.68,0.29 -0.69,0.27 -0.55,0.19 -0.86,0.25 -0.41,0.11 -1,0.21 h -0.33 l -0.81,0.12 c -0.35,0 -0.7,0.02 -1.04,0.07 v 3.05 l 1.04,-1.04 1.12,-1.12 0.99,0.99 -2.06,2.06 -0.76,0.75 -0.99,0.98 -0.98,-0.98 -0.75,-0.75 -2.05,-2.01 0.98,-0.98 1.12,1.12 0.96,0.98 v -3.02 c -0.35,0 -0.69,-0.02 -1.04,-0.07 l -0.8,-0.12 h -0.34 l -0.99,-0.21 -0.42,-0.1 -0.86,-0.26 -0.55,-0.19 c -0.23,-0.08 -0.46,-0.18 -0.68,-0.27 l -0.68,-0.29 -0.52,-0.26 c -0.27,-0.13 -0.52,-0.28 -0.78,-0.42 l -0.37,-0.23 c -0.29,-0.17 -0.58,-0.35 -0.86,-0.56 l -0.26,-0.2 c -0.22,-0.15 -0.45,-0.31 -0.66,-0.48 A 17.0673,17.0673 0 0 1 8.99,185.57 C 8.82,185.36 8.66,185.13 8.51,184.91 8.35,184.69 8.37,184.74 8.3,184.64 8.1,184.36 7.92,184.08 7.74,183.79 7.67,183.67 7.59,183.54 7.52,183.42 7.45,183.3 7.23,182.9 7.1,182.64 l -0.26,-0.52 c -0.1,-0.22 -0.2,-0.46 -0.29,-0.68 -0.09,-0.22 -0.19,-0.46 -0.28,-0.68 -0.09,-0.23 -0.13,-0.37 -0.18,-0.55 -0.06,-0.18 -0.18,-0.57 -0.26,-0.86 l -0.1,-0.42 c -0.08,-0.33 -0.15,-0.66 -0.21,-1 0,-0.1 0,-0.22 0,-0.33 0,-0.11 -0.09,-0.54 -0.13,-0.8 0,-0.35 0,-0.7 -0.07,-1.04 h -4.2 v -1.43 h 4.21 c 0,-0.34 0,-0.69 0.08,-1.04 0,-0.27 0.07,-0.53 0.12,-0.8 0.04,-0.27 0,-0.23 0,-0.34 0.07,-0.33 0.13,-0.66 0.21,-0.99 l 0.1,-0.42 c 0.08,-0.29 0.17,-0.58 0.26,-0.86 l 0.18,-0.55 c 0.09,-0.23 0.18,-0.46 0.28,-0.68 0.1,-0.23 0.19,-0.46 0.29,-0.68 0.1,-0.23 0.17,-0.35 0.26,-0.52 0.09,-0.17 0.27,-0.53 0.42,-0.78 a 4.24164,4.24164 0 0 1 0.3,-0.38 c 0.18,-0.28 0.36,-0.57 0.56,-0.85 l 0.21,-0.27 c 0.15,-0.21 0.31,-0.44 0.48,-0.65 a 17.0673,17.0673 0 0 1 2.46,-2.46 l 0.65,-0.48 0.27,-0.21 c 0.28,-0.2 0.57,-0.38 0.86,-0.56 a 4.05138,4.05138 0 0 1 0.37,-0.22 c 0.25,-0.15 0.51,-0.29 0.78,-0.42 l 0.52,-0.26 0.68,-0.29 0.68,-0.28 0.55,-0.18 0.81,-0.26 0.41,-0.1 c 0.34,-0.08 0.66,-0.16 1,-0.21 h 0.33 l 0.81,-0.13 1,-0.1 v -3.05 l -1.04,1.05 -1.12,1.12 -0.98,-0.99 2.14,-2.07 v -0.05 l 1.68,-1.69 z m -0.05,-1.54 -0.68,0.76 -1.67,1.68 h -0.07 l -2.12,2.11 -0.78,0.8 0.78,0.79 0.47,0.46 h -0.12 l -0.34,0.08 -0.91,0.28 h -0.06 l -0.53,0.17 -0.73,0.29 -0.72,0.38 -0.47,0.24 h -0.08 c -0.29,0.14 -0.57,0.29 -0.84,0.44 l -0.29,0.18 -0.11,0.07 c -0.3,0.19 -0.61,0.38 -0.91,0.59 a 1.21989,1.21989 -180 0 0 -0.19,0.15 l -0.1,0.07 -0.18,0.13 -0.51,0.37 -0.95,0.77 c -0.32,0.29 -0.62,0.58 -0.91,0.9 l -0.79,0.94 -0.39,0.5 -0.11,0.25 -0.06,0.1 a 1.21989,1.21989 -180 0 0 -0.15,0.19 c -0.21,0.3 -0.4,0.6 -0.59,0.9 v 0.1 l -0.19,0.31 c -0.16,0.27 -0.31,0.54 -0.45,0.84 -0.15,0.29 -0.19,0.37 -0.28,0.54 -0.09,0.18 -0.21,0.49 -0.31,0.72 -0.1,0.24 -0.19,0.49 -0.28,0.74 -0.09,0.25 -0.13,0.35 -0.18,0.51 v 0.07 c -0.1,0.3 -0.19,0.61 -0.28,0.92 0,0.11 0,0.22 -0.08,0.33 v 0.12 c -0.09,0.34 -0.17,0.7 -0.22,1.12 v 0.23 0.11 0.24 c 0,0.21 -0.07,0.41 -0.09,0.64 H 0 v 3.58 h 4.26 c 0,0.21 0.06,0.42 0.09,0.63 v 0.23 l 0.13,0.26 v 0.22 c 0.05,0.37 0.13,0.72 0.22,1.12 v 0.11 c 0,0.11 0,0.22 0.08,0.34 0.09,0.31 0.18,0.61 0.28,0.91 l 0.17,0.54 c 0.1,0.25 0.19,0.49 0.29,0.73 0.1,0.23 0.2,0.49 0.31,0.73 l 0.26,0.5 c 0.17,0.32 0.31,0.62 0.47,0.88 l 0.18,0.3 0.06,0.11 c 0.19,0.3 0.39,0.6 0.6,0.9 l 0.14,0.21 0.07,0.08 0.13,0.18 c 0.13,0.18 0.25,0.35 0.39,0.52 l 0.78,0.95 c 0.29,0.31 0.59,0.62 0.91,0.91 l 0.92,0.78 0.51,0.38 0.19,0.13 0.1,0.08 0.18,0.14 c 0.3,0.21 0.61,0.4 0.92,0.59 l 0.1,0.06 0.29,0.18 c 0.28,0.16 0.56,0.31 0.85,0.45 h 0.05 l 0.5,0.25 0.72,0.31 0.73,0.3 0.53,0.17 h 0.05 c 0.31,0.1 0.61,0.19 0.92,0.27 l 0.34,0.09 h 0.11 l -0.47,0.47 -0.79,0.8 0.79,0.79 2.06,2.06 0.76,0.75 0.98,0.99 0.79,0.79 0.79,-0.79 0.99,-0.99 0.76,-0.75 2.05,-2.06 0.79,-0.79 -0.79,-0.8 -0.47,-0.47 h 0.11 l 0.33,-0.09 c 0.32,-0.08 0.62,-0.17 0.92,-0.27 l 0.57,-0.19 0.75,-0.3 c 0.24,-0.09 0.48,-0.2 0.72,-0.31 0.23,-0.11 0.32,-0.16 0.48,-0.24 h 0.07 c 0.28,-0.14 0.57,-0.29 0.84,-0.46 l 0.36,-0.25 h 0.12 c 0.3,-0.19 0.6,-0.38 0.9,-0.6 l 0.2,-0.14 0.09,-0.07 0.18,-0.13 0.52,-0.38 0.94,-0.78 c 0.3,-0.29 0.6,-0.58 0.89,-0.89 l 0.81,-0.95 c 0.13,-0.17 0.26,-0.35 0.39,-0.53 l 0.12,-0.17 0.07,-0.09 0.15,-0.2 c 0.21,-0.3 0.4,-0.6 0.59,-0.9 v -0.1 l 0.18,-0.3 c 0.17,-0.28 0.31,-0.57 0.46,-0.85 0.14,-0.28 0.19,-0.38 0.27,-0.54 0.07,-0.17 0.22,-0.49 0.31,-0.73 0.09,-0.25 0.2,-0.48 0.29,-0.73 0.09,-0.25 0.12,-0.36 0.18,-0.54 v -0.05 c 0.1,-0.29 0.19,-0.6 0.27,-0.91 0,-0.11 0,-0.22 0.09,-0.33 v -0.12 c 0.09,-0.35 0.17,-0.7 0.22,-1.06 v -0.25 -0.11 -0.22 c 0,-0.21 0.07,-0.43 0.09,-0.64 h 4.27 v -3.72 h -4.1 c 0,-0.22 -0.06,-0.42 -0.09,-0.63 v -0.23 -0.11 -0.25 c 0,-0.35 -0.13,-0.7 -0.22,-1.11 v -0.13 c 0,-0.11 0,-0.21 -0.08,-0.32 -0.08,-0.32 -0.17,-0.62 -0.27,-0.92 v -0.06 c -0.06,-0.17 -0.11,-0.34 -0.18,-0.52 -0.07,-0.18 -0.19,-0.49 -0.29,-0.73 -0.1,-0.23 -0.2,-0.49 -0.31,-0.73 -0.12,-0.23 -0.16,-0.33 -0.25,-0.5 -0.17,-0.34 -0.31,-0.62 -0.47,-0.88 l -0.18,-0.3 -0.07,-0.11 c -0.19,-0.3 -0.38,-0.6 -0.59,-0.9 l -0.15,-0.19 -0.21,-0.09 -0.13,-0.18 c -0.13,-0.18 -0.25,-0.35 -0.38,-0.52 l -0.79,-0.96 c -0.29,-0.31 -0.59,-0.62 -0.89,-0.9 l -0.95,-0.8 -0.52,-0.38 -0.18,-0.14 -0.06,-0.02 -0.21,-0.14 c -0.3,-0.22 -0.6,-0.41 -0.91,-0.6 l -0.09,-0.05 -0.31,-0.19 c -0.26,-0.16 -0.55,-0.31 -0.83,-0.45 h -0.07 l -0.51,-0.27 -0.72,-0.31 -0.73,-0.28 -0.53,-0.18 H 27.5 l -0.92,-0.35 h -0.34 -0.11 l 0.47,-0.46 0.8,-0.79 -0.8,-0.8 -2.07,-2.13 h -0.05 l -1.69,-1.74 -0.8,-0.79 z"
   class="st22"
   id="path593" />
					<path
   d="m 21.99,152.64 1.69,1.69 0.06,0.06 2.06,2.06 -0.99,0.98 -1.12,-1.11 -1.04,-1.06 v 3.1 l 1.04,0.08 0.81,0.12 h 0.33 c 0.34,0 0.66,0.14 1,0.22 l 0.41,0.1 0.87,0.26 0.54,0.17 0.69,0.28 0.76,0.32 0.51,0.26 c 0.27,0.13 0.53,0.26 0.79,0.42 l 0.37,0.22 c 0.29,0.18 0.58,0.36 0.86,0.56 l 0.26,0.21 c 0.22,0.15 0.44,0.31 0.66,0.48 a 17.0673,17.0673 0 0 1 2.46,2.46 c 0.17,0.21 0.32,0.44 0.48,0.65 l 0.2,0.27 c 0.2,0.28 0.38,0.57 0.56,0.86 0.18,0.29 0.15,0.23 0.22,0.37 0.08,0.13 0.29,0.51 0.43,0.78 0.13,0.27 0.17,0.35 0.26,0.52 0.09,0.16 0.2,0.44 0.29,0.68 0.09,0.23 0.19,0.45 0.27,0.68 0.07,0.24 0.12,0.37 0.19,0.55 0.06,0.18 0.18,0.57 0.25,0.86 l 0.1,0.42 c 0.08,0.33 0.15,0.66 0.22,0.99 0,0.11 0,0.23 0,0.34 0,0.11 0.09,0.53 0.12,0.8 0,0.35 0.02,0.7 0.07,1.04 h 4.22 v 1.36 h -4.23 c 0,0.35 -0.03,0.7 -0.07,1.04 0,0.27 -0.08,0.54 -0.12,0.8 -0.05,0.27 0,0.23 0,0.34 -0.07,0.34 -0.14,0.66 -0.22,1 l -0.1,0.41 c -0.08,0.29 -0.17,0.57 -0.26,0.86 -0.08,0.29 -0.12,0.36 -0.19,0.55 -0.06,0.19 -0.17,0.46 -0.26,0.68 -0.09,0.23 -0.19,0.46 -0.29,0.69 l -0.26,0.51 -0.43,0.78 -0.22,0.37 c -0.18,0.29 -0.36,0.57 -0.56,0.85 l -0.2,0.28 c -0.16,0.22 -0.32,0.44 -0.48,0.65 a 17.0673,17.0673 0 0 1 -2.54,2.5 c -0.22,0.17 -0.44,0.32 -0.66,0.48 l -0.26,0.2 c -0.28,0.2 -0.57,0.38 -0.86,0.56 l -0.37,0.22 c -0.26,0.15 -0.52,0.3 -0.79,0.43 l -0.51,0.26 -0.68,0.29 -0.69,0.27 -0.55,0.19 -0.86,0.25 -0.41,0.11 -1,0.21 h -0.33 l -0.81,0.12 c -0.35,0 -0.7,0.02 -1.04,0.07 v 3.05 l 1.04,-1.04 1.12,-1.12 0.99,0.99 -2.06,2.06 -0.76,0.75 -0.99,0.98 -0.98,-0.98 -0.75,-0.75 -2.05,-2.01 0.98,-0.98 1.12,1.12 0.96,0.98 v -3.02 c -0.35,0 -0.69,-0.02 -1.04,-0.07 l -0.8,-0.12 h -0.34 l -0.99,-0.21 -0.42,-0.1 -0.86,-0.26 -0.55,-0.19 c -0.23,-0.08 -0.46,-0.18 -0.68,-0.27 l -0.68,-0.29 -0.52,-0.26 c -0.27,-0.13 -0.52,-0.28 -0.78,-0.42 l -0.37,-0.23 c -0.29,-0.17 -0.58,-0.35 -0.86,-0.56 l -0.26,-0.2 c -0.22,-0.15 -0.45,-0.31 -0.66,-0.48 A 17.0673,17.0673 0 0 1 8.99,185.57 C 8.82,185.36 8.66,185.13 8.51,184.91 8.35,184.69 8.37,184.74 8.3,184.64 8.1,184.36 7.92,184.08 7.74,183.79 7.67,183.67 7.59,183.54 7.52,183.42 7.45,183.3 7.23,182.9 7.1,182.64 l -0.26,-0.52 c -0.1,-0.22 -0.2,-0.46 -0.29,-0.68 -0.09,-0.22 -0.19,-0.46 -0.28,-0.68 -0.09,-0.23 -0.13,-0.37 -0.18,-0.55 -0.06,-0.18 -0.18,-0.57 -0.26,-0.86 l -0.1,-0.42 c -0.08,-0.33 -0.15,-0.66 -0.21,-1 0,-0.1 0,-0.22 0,-0.33 0,-0.11 -0.09,-0.54 -0.13,-0.8 0,-0.35 0,-0.7 -0.07,-1.04 h -4.2 v -1.43 h 4.21 c 0,-0.34 0,-0.69 0.08,-1.04 0,-0.27 0.07,-0.53 0.12,-0.8 0.04,-0.27 0,-0.23 0,-0.34 0.07,-0.33 0.13,-0.66 0.21,-0.99 l 0.1,-0.42 c 0.08,-0.29 0.17,-0.58 0.26,-0.86 l 0.18,-0.55 c 0.09,-0.23 0.18,-0.46 0.28,-0.68 0.1,-0.23 0.19,-0.46 0.29,-0.68 0.1,-0.23 0.17,-0.35 0.26,-0.52 0.09,-0.17 0.27,-0.53 0.42,-0.78 a 4.24164,4.24164 0 0 1 0.3,-0.38 c 0.18,-0.28 0.36,-0.57 0.56,-0.85 l 0.21,-0.27 c 0.15,-0.21 0.31,-0.44 0.48,-0.65 a 17.0673,17.0673 0 0 1 2.46,-2.46 l 0.65,-0.48 0.27,-0.21 c 0.28,-0.2 0.57,-0.38 0.86,-0.56 a 4.05138,4.05138 0 0 1 0.37,-0.22 c 0.25,-0.15 0.51,-0.29 0.78,-0.42 l 0.52,-0.26 0.68,-0.29 0.68,-0.28 0.55,-0.18 0.81,-0.26 0.41,-0.1 c 0.34,-0.08 0.66,-0.16 1,-0.21 h 0.33 l 0.81,-0.13 1,-0.1 v -3.05 l -1.04,1.05 -1.12,1.12 -0.98,-0.99 2.14,-2.07 v -0.05 l 1.68,-1.69 m 0,-1.58 -0.68,0.76 -1.67,1.68 h -0.07 l -2.12,2.11 -0.78,0.8 0.78,0.79 0.47,0.46 h -0.12 l -0.34,0.08 -0.91,0.28 h -0.06 l -0.53,0.17 -0.73,0.29 -0.72,0.38 -0.47,0.24 h -0.08 c -0.29,0.14 -0.57,0.29 -0.84,0.44 l -0.29,0.18 -0.11,0.07 c -0.3,0.19 -0.61,0.38 -0.91,0.59 a 1.21989,1.21989 -180 0 0 -0.19,0.15 l -0.1,0.07 -0.18,0.13 -0.51,0.37 -0.95,0.77 c -0.32,0.29 -0.62,0.58 -0.91,0.9 l -0.79,0.94 -0.39,0.5 -0.11,0.25 -0.06,0.1 a 1.21989,1.21989 -180 0 0 -0.15,0.19 c -0.21,0.3 -0.4,0.6 -0.59,0.9 v 0.1 l -0.19,0.31 c -0.16,0.27 -0.31,0.54 -0.45,0.84 -0.15,0.29 -0.19,0.37 -0.28,0.54 -0.09,0.18 -0.21,0.49 -0.31,0.72 -0.1,0.24 -0.19,0.49 -0.28,0.74 -0.09,0.25 -0.13,0.35 -0.18,0.51 v 0.07 c -0.1,0.3 -0.19,0.61 -0.28,0.92 0,0.11 0,0.22 -0.08,0.33 v 0.12 c -0.09,0.34 -0.17,0.7 -0.22,1.12 v 0.23 0.11 0.24 c 0,0.21 -0.07,0.41 -0.09,0.64 H 0 v 3.58 h 4.26 c 0,0.21 0.06,0.42 0.09,0.63 v 0.23 l 0.13,0.26 v 0.22 c 0.05,0.37 0.13,0.72 0.22,1.12 v 0.11 c 0,0.11 0,0.22 0.08,0.34 0.09,0.31 0.18,0.61 0.28,0.91 l 0.17,0.54 c 0.1,0.25 0.19,0.49 0.29,0.73 0.1,0.23 0.2,0.49 0.31,0.73 l 0.26,0.5 c 0.17,0.32 0.31,0.62 0.47,0.88 l 0.18,0.3 0.06,0.11 c 0.19,0.3 0.39,0.6 0.6,0.9 l 0.14,0.21 0.07,0.08 0.13,0.18 c 0.13,0.18 0.25,0.35 0.39,0.52 l 0.78,0.95 c 0.29,0.31 0.59,0.62 0.91,0.91 l 0.92,0.78 0.51,0.38 0.19,0.13 0.1,0.08 0.18,0.14 c 0.3,0.21 0.61,0.4 0.92,0.59 l 0.1,0.06 0.29,0.18 c 0.28,0.16 0.56,0.31 0.85,0.45 h 0.05 l 0.5,0.25 0.72,0.31 0.73,0.3 0.53,0.17 h 0.05 c 0.31,0.1 0.61,0.19 0.92,0.27 l 0.34,0.09 h 0.11 l -0.47,0.47 -0.79,0.8 0.79,0.79 2.06,2.06 0.76,0.75 0.98,0.99 0.79,0.79 0.79,-0.79 0.99,-0.99 0.76,-0.75 2.05,-2.06 0.79,-0.79 -0.79,-0.8 -0.47,-0.47 h 0.11 l 0.33,-0.09 c 0.32,-0.08 0.62,-0.17 0.92,-0.27 l 0.57,-0.19 0.75,-0.3 c 0.24,-0.09 0.48,-0.2 0.72,-0.31 0.23,-0.11 0.32,-0.16 0.48,-0.24 h 0.07 c 0.28,-0.14 0.57,-0.29 0.84,-0.46 l 0.36,-0.25 h 0.12 c 0.3,-0.19 0.6,-0.38 0.9,-0.6 l 0.2,-0.14 0.09,-0.07 0.18,-0.13 0.52,-0.38 0.94,-0.78 c 0.3,-0.29 0.6,-0.58 0.89,-0.89 l 0.81,-0.95 c 0.13,-0.17 0.26,-0.35 0.39,-0.53 l 0.12,-0.17 0.07,-0.09 0.15,-0.2 c 0.21,-0.3 0.4,-0.6 0.59,-0.9 v -0.1 l 0.18,-0.3 c 0.17,-0.28 0.31,-0.57 0.46,-0.85 0.14,-0.28 0.19,-0.38 0.27,-0.54 0.07,-0.17 0.22,-0.49 0.31,-0.73 0.09,-0.25 0.2,-0.48 0.29,-0.73 0.09,-0.25 0.12,-0.36 0.18,-0.54 v -0.05 c 0.1,-0.29 0.19,-0.6 0.27,-0.91 0,-0.11 0,-0.22 0.09,-0.33 v -0.12 c 0.09,-0.35 0.17,-0.7 0.22,-1.06 v -0.25 -0.11 -0.22 c 0,-0.21 0.07,-0.43 0.09,-0.64 h 4.27 v -3.72 h -4.1 c 0,-0.22 -0.06,-0.42 -0.09,-0.63 v -0.23 -0.11 -0.25 c 0,-0.35 -0.13,-0.7 -0.22,-1.11 v -0.13 c 0,-0.11 0,-0.21 -0.08,-0.32 -0.08,-0.32 -0.17,-0.62 -0.27,-0.92 v -0.06 c -0.06,-0.17 -0.11,-0.34 -0.18,-0.52 -0.07,-0.18 -0.19,-0.49 -0.29,-0.73 -0.1,-0.23 -0.2,-0.49 -0.31,-0.73 -0.12,-0.23 -0.16,-0.33 -0.25,-0.5 -0.17,-0.34 -0.31,-0.62 -0.47,-0.88 l -0.18,-0.3 -0.07,-0.11 c -0.19,-0.3 -0.38,-0.6 -0.59,-0.9 l -0.15,-0.19 -0.21,-0.09 -0.13,-0.18 c -0.13,-0.18 -0.25,-0.35 -0.38,-0.52 l -0.79,-0.96 c -0.29,-0.31 -0.59,-0.62 -0.89,-0.9 l -0.95,-0.8 -0.52,-0.38 -0.18,-0.14 -0.06,-0.02 -0.21,-0.14 c -0.3,-0.22 -0.6,-0.41 -0.91,-0.6 l -0.09,-0.05 -0.31,-0.19 c -0.26,-0.16 -0.55,-0.31 -0.83,-0.45 h -0.07 l -0.51,-0.27 -0.72,-0.31 -0.73,-0.28 -0.53,-0.18 H 27.5 l -0.92,-0.35 h -0.34 -0.11 l 0.47,-0.46 0.8,-0.79 -0.8,-0.8 -2.07,-2.13 h -0.05 l -1.69,-1.74 -0.8,-0.79 -0.05,0.03"
   class="st23"
   id="path595" />
				</g>
				<g
   id="shape216-222"
   v:mID="216"
   v:groupContext="shape"
   transform="translate(23.7375,-7.35292)">
					<title
   id="title598">Sheet.216</title>
					<path
   d="M 0,197.59 V 199 a 16.7875,16.7875 -180 0 0 14.87,-14.84 h -1.4 A 15.3438,15.3438 0 0 1 0,197.59 Z"
   class="st24"
   id="path600" />
				</g>
				<g
   id="shape217-224"
   v:mID="217"
   v:groupContext="shape"
   transform="translate(5.38319,-7.35292)">
					<title
   id="title603">Sheet.217</title>
					<path
   d="M 1.4,184.16 H 0 A 16.7875,16.7875 -180 0 0 14.87,199 v -1.41 A 15.3438,15.3438 0 0 1 1.4,184.16 Z"
   class="st24"
   id="path605" />
				</g>
				<g
   id="shape218-226"
   v:mID="218"
   v:groupContext="shape"
   transform="translate(23.7375,-25.7072)">
					<title
   id="title608">Sheet.218</title>
					<path
   d="m 13.47,199 h 1.4 A 16.7875,16.7875 -180 0 0 0,184.13 v 1.4 A 15.3661,15.3661 0 0 1 13.47,199 Z"
   class="st24"
   id="path610" />
				</g>
				<g
   id="shape219-228"
   v:mID="219"
   v:groupContext="shape"
   transform="translate(5.38319,-25.7072)">
					<title
   id="title613">Sheet.219</title>
					<path
   d="m 14.87,185.53 v -1.4 A 16.7875,16.7875 -180 0 0 0,199 h 1.4 a 15.3661,15.3661 0 0 1 13.47,-13.47 z"
   class="st24"
   id="path615" />
				</g>
				<g
   id="shape220-230"
   v:mID="220"
   v:groupContext="shape"
   transform="translate(18.1976,-1.58922)">
					<title
   id="title618">Sheet.220</title>
					<path
   d="m 4.5,156.9 1.04,1.05 1.07,1.07 0.99,-0.98 -2.06,-2.06 -0.06,-0.06 -1.69,-1.69 -1.67,1.69 -0.06,0.06 -2.06,2.06 0.98,0.98 1.08,-1.07 1.04,-1.05 v 39.44 L 2.06,195.3 0.98,194.22 0,195.21 l 2.06,2.06 0.75,0.75 0.98,0.98 0.99,-0.98 0.76,-0.75 2.06,-2.06 -0.99,-0.99 -1.07,1.08 -1.04,1.04 z"
   class="st24"
   id="path620" />
				</g>
				<g
   id="shape221-232"
   v:mID="221"
   v:groupContext="shape"
   transform="translate(22.7526,-20.1674)">
					<title
   id="title623">Sheet.221</title>
					<path
   d="M 2.66,194.5 3.7,193.46 4.78,192.39 3.79,191.4 1.73,193.46 0,195.19 1.73,196.94 3.79,199 4.78,198.02 3.7,196.94 2.66,195.9 h 17.46 v -1.4 z"
   class="st24"
   id="path625" />
				</g>
				<g
   id="shape222-234"
   v:mID="222"
   v:groupContext="shape"
   transform="translate(1.11917,-20.1674)">
					<title
   id="title628">Sheet.222</title>
					<path
   d="m 17.46,195.9 -1.04,1.04 -1.08,1.08 0.99,0.98 2.81,-2.82 0.98,-0.99 -0.98,-0.97 -2.81,-2.82 -0.99,0.99 1.08,1.07 1.04,1.04 H 0 v 1.4 z"
   class="st24"
   id="path630" />
				</g>
			</g>
		</g>
		<g
   id="group223-236"
   transform="translate(61.875,-106.953)"
   v:mID="223"
   v:groupContext="group">
			<title
   id="title635">On-Premises Data Center</title>
			<g
   id="shape224-237"
   v:mID="224"
   v:groupContext="shape">
				<title
   id="title637">Sheet.224</title>
				<desc
   id="desc639">Data Center</desc>
				<v:textBlock
   v:margins="rect(4,4,4,4)" />
				<v:textRect
   cx="26.8"
   cy="184.5"
   width="53.6"
   height="29" />
				<rect
   x="0"
   y="170"
   width="53.599998"
   height="29"
   class="st18"
   id="rect641" />
				<text
   x="18.389999"
   y="182.10001"
   class="st19"
   v:langID="1033"
   id="text645"><v:paragraph
   v:horizAlign="1"
   v:bulletSize="0.166667" /><v:tabList />Data<v:newlineChar /><tspan
   x="14.8"
   dy="1.2em"
   class="st11"
   id="tspan643">Center</tspan></text>			</g>
			<g
   id="group225-241"
   transform="translate(16.7879,-28.075)"
   v:mID="225"
   v:groupContext="group">
				<title
   id="title648">Customer Data Center</title>
				<g
   id="shape226-242"
   v:mID="226"
   v:groupContext="shape"
   transform="translate(0.428234,-0.428234)">
					<title
   id="title650">Sheet.226</title>
					<path
   d="M 0,197.24 A 1.7558,1.7558 -180 0 0 1.76,199 h 15.65 a 1.7558,1.7558 -180 0 0 1.76,-1.76 v -31.6 a 1.7558,1.7558 -180 0 0 -1.76,-1.76 H 1.76 A 1.7558,1.7558 -180 0 0 0,165.64 Z"
   class="st25"
   id="path652" />
				</g>
				<g
   id="shape227-244"
   v:mID="227"
   v:groupContext="shape">
					<title
   id="title655">Sheet.227</title>
					<path
   d="m 17.84,163.88 a 1.33609,1.33609 0 0 1 1.33,1.33 v 31.61 a 1.33609,1.33609 0 0 1 -1.33,1.32 H 2.18 a 1.33609,1.33609 0 0 1 -1.32,-1.32 v -31.61 a 1.33609,1.33609 0 0 1 1.32,-1.33 z m 0,-0.85 H 2.18 A 2.18399,2.18399 -180 0 0 0,165.21 v 31.61 A 2.18399,2.18399 -180 0 0 2.18,199 h 15.66 a 2.18399,2.18399 -180 0 0 2.18,-2.18 v -31.61 a 2.18399,2.18399 -180 0 0 -2.18,-2.18 z"
   class="st25"
   id="path657" />
				</g>
				<g
   id="shape228-246"
   v:mID="228"
   v:groupContext="shape"
   transform="translate(0.856468,-0.856468)">
					<title
   id="title660">Sheet.228</title>
					<path
   d="M 16.98,164.74 H 1.33 A 1.33609,1.33609 -180 0 0 0,166.07 v 31.6 A 1.33609,1.33609 -180 0 0 1.33,199 h 15.65 a 1.33609,1.33609 -180 0 0 1.33,-1.33 v -31.6 a 1.33609,1.33609 -180 0 0 -1.33,-1.33 z m 0.15,32.93 a 0.154164,0.154164 0 0 1 -0.1456,0.1456 L 1.33,197.82 A 0.154164,0.154164 0 0 1 1.1844,197.6744 L 1.18,166.07 a 0.154164,0.154164 0 0 1 0.1456,-0.1456 L 16.98,165.92 a 0.154164,0.154164 0 0 1 0.1456,0.1456 z"
   class="st26"
   id="path662" />
				</g>
				<g
   id="shape229-248"
   v:mID="229"
   v:groupContext="shape"
   transform="translate(2.92056,-27.7324)">
					<title
   id="title665">Sheet.229</title>
					<path
   d="m 0,199 h 14.21 v -5.32 H 0 Z m 1.18,-4.14 H 13 v 2.96 H 1.18 Z"
   class="st26"
   id="path667" />
				</g>
				<g
   id="shape230-250"
   v:mID="230"
   v:groupContext="shape"
   transform="translate(13.8491,-29.7965)">
					<title
   id="title670">Sheet.230</title>
					<circle
   cx="0.59096301"
   cy="198.409"
   class="st26"
   id="ellipse672"
   r="0.59096301" />
				</g>
				<g
   id="shape231-252"
   v:mID="231"
   v:groupContext="shape"
   transform="translate(2.92056,-21.5316)">
					<title
   id="title675">Sheet.231</title>
					<path
   d="m 0,199 h 14.21 v -5.31 H 0 Z m 1.18,-4.16 H 13 v 2.95 H 1.18 Z"
   class="st26"
   id="path677" />
				</g>
				<g
   id="shape232-254"
   v:mID="232"
   v:groupContext="shape"
   transform="translate(13.8491,-23.5957)">
					<title
   id="title680">Sheet.232</title>
					<circle
   cx="0.59096301"
   cy="198.409"
   class="st26"
   id="ellipse682"
   r="0.59096301" />
				</g>
				<g
   id="shape233-256"
   v:mID="233"
   v:groupContext="shape"
   transform="translate(2.92056,-15.3308)">
					<title
   id="title685">Sheet.233</title>
					<path
   d="m 0,199 h 14.21 v -5.31 H 0 Z m 1.18,-4.13 H 13 v 2.95 H 1.18 Z"
   class="st26"
   id="path687" />
				</g>
				<g
   id="shape234-258"
   v:mID="234"
   v:groupContext="shape"
   transform="translate(13.8491,-17.3949)">
					<title
   id="title690">Sheet.234</title>
					<circle
   cx="0.59096301"
   cy="198.409"
   class="st26"
   id="ellipse692"
   r="0.59096301" />
				</g>
				<g
   id="shape235-260"
   v:mID="235"
   v:groupContext="shape"
   transform="translate(2.92056,-9.12995)">
					<title
   id="title695">Sheet.235</title>
					<path
   d="m 0,199 h 14.21 v -5.31 H 0 Z m 1.18,-4.13 H 13 v 2.98 H 1.18 Z"
   class="st26"
   id="path697" />
				</g>
				<g
   id="shape236-262"
   v:mID="236"
   v:groupContext="shape"
   transform="translate(13.8491,-11.194)">
					<title
   id="title700">Sheet.236</title>
					<circle
   cx="0.59096301"
   cy="198.409"
   class="st26"
   id="ellipse702"
   r="0.59096301" />
				</g>
				<g
   id="shape237-264"
   v:mID="237"
   v:groupContext="shape"
   transform="translate(2.92056,-2.92056)">
					<title
   id="title705">Sheet.237</title>
					<path
   d="m 0,199 h 14.21 v -5.32 H 0 Z m 1.18,-4.14 H 13 v 2.96 H 1.18 Z"
   class="st26"
   id="path707" />
				</g>
				<g
   id="shape238-266"
   v:mID="238"
   v:groupContext="shape"
   transform="translate(13.8491,-4.99321)">
					<title
   id="title710">Sheet.238</title>
					<circle
   cx="0.59096301"
   cy="198.409"
   class="st26"
   id="ellipse712"
   r="0.59096301" />
				</g>
			</g>
		</g>
		<g
   id="group239-268"
   transform="translate(150.914,-3.95341)"
   v:mID="239"
   v:groupContext="group">
			<title
   id="title717">On-Premises Data Center.239</title>
			<g
   id="shape240-269"
   v:mID="240"
   v:groupContext="shape">
				<title
   id="title719">Sheet.240</title>
				<desc
   id="desc721">External host</desc>
				<v:textBlock
   v:margins="rect(4,4,4,4)" />
				<v:textRect
   cx="26.8"
   cy="184.5"
   width="53.6"
   height="29" />
				<rect
   x="0"
   y="170"
   width="53.599998"
   height="29"
   class="st18"
   id="rect723" />
				<text
   x="11.98"
   y="182.10001"
   class="st19"
   v:langID="1033"
   id="text727"><v:paragraph
   v:horizAlign="1"
   v:bulletSize="0.166667" /><v:tabList />External <tspan
   x="18.870001"
   dy="1.2em"
   class="st11"
   id="tspan725">host</tspan></text>			</g>
			<g
   id="group241-273"
   transform="translate(16.7879,-28.075)"
   v:mID="241"
   v:groupContext="group">
				<title
   id="title730">Customer Data Center</title>
				<g
   id="shape242-274"
   v:mID="242"
   v:groupContext="shape"
   transform="translate(0.428234,-0.428234)">
					<title
   id="title732">Sheet.242</title>
					<path
   d="M 0,197.24 A 1.7558,1.7558 -180 0 0 1.76,199 h 15.65 a 1.7558,1.7558 -180 0 0 1.76,-1.76 v -31.6 a 1.7558,1.7558 -180 0 0 -1.76,-1.76 H 1.76 A 1.7558,1.7558 -180 0 0 0,165.64 Z"
   class="st25"
   id="path734" />
				</g>
				<g
   id="shape243-276"
   v:mID="243"
   v:groupContext="shape">
					<title
   id="title737">Sheet.243</title>
					<path
   d="m 17.84,163.88 a 1.33609,1.33609 0 0 1 1.33,1.33 v 31.61 a 1.33609,1.33609 0 0 1 -1.33,1.32 H 2.18 a 1.33609,1.33609 0 0 1 -1.32,-1.32 v -31.61 a 1.33609,1.33609 0 0 1 1.32,-1.33 z m 0,-0.85 H 2.18 A 2.18399,2.18399 -180 0 0 0,165.21 v 31.61 A 2.18399,2.18399 -180 0 0 2.18,199 h 15.66 a 2.18399,2.18399 -180 0 0 2.18,-2.18 v -31.61 a 2.18399,2.18399 -180 0 0 -2.18,-2.18 z"
   class="st25"
   id="path739" />
				</g>
				<g
   id="shape244-278"
   v:mID="244"
   v:groupContext="shape"
   transform="translate(0.856468,-0.856468)">
					<title
   id="title742">Sheet.244</title>
					<path
   d="M 16.98,164.74 H 1.33 A 1.33609,1.33609 -180 0 0 0,166.07 v 31.6 A 1.33609,1.33609 -180 0 0 1.33,199 h 15.65 a 1.33609,1.33609 -180 0 0 1.33,-1.33 v -31.6 a 1.33609,1.33609 -180 0 0 -1.33,-1.33 z m 0.15,32.93 a 0.154164,0.154164 0 0 1 -0.1456,0.1456 L 1.33,197.82 A 0.154164,0.154164 0 0 1 1.1844,197.6744 L 1.18,166.07 a 0.154164,0.154164 0 0 1 0.1456,-0.1456 L 16.98,165.92 a 0.154164,0.154164 0 0 1 0.1456,0.1456 z"
   class="st26"
   id="path744" />
				</g>
				<g
   id="shape245-280"
   v:mID="245"
   v:groupContext="shape"
   transform="translate(2.92056,-27.7324)">
					<title
   id="title747">Sheet.245</title>
					<path
   d="m 0,199 h 14.21 v -5.32 H 0 Z m 1.18,-4.14 H 13 v 2.96 H 1.18 Z"
   class="st26"
   id="path749" />
				</g>
				<g
   id="shape246-282"
   v:mID="246"
   v:groupContext="shape"
   transform="translate(13.8491,-29.7965)">
					<title
   id="title752">Sheet.246</title>
					<circle
   cx="0.59096301"
   cy="198.409"
   class="st26"
   id="ellipse754"
   r="0.59096301" />
				</g>
				<g
   id="shape247-284"
   v:mID="247"
   v:groupContext="shape"
   transform="translate(2.92056,-21.5316)">
					<title
   id="title757">Sheet.247</title>
					<path
   d="m 0,199 h 14.21 v -5.31 H 0 Z m 1.18,-4.16 H 13 v 2.95 H 1.18 Z"
   class="st26"
   id="path759" />
				</g>
				<g
   id="shape248-286"
   v:mID="248"
   v:groupContext="shape"
   transform="translate(13.8491,-23.5957)">
					<title
   id="title762">Sheet.248</title>
					<circle
   cx="0.59096301"
   cy="198.409"
   class="st26"
   id="ellipse764"
   r="0.59096301" />
				</g>
				<g
   id="shape249-288"
   v:mID="249"
   v:groupContext="shape"
   transform="translate(2.92056,-15.3308)">
					<title
   id="title767">Sheet.249</title>
					<path
   d="m 0,199 h 14.21 v -5.31 H 0 Z m 1.18,-4.13 H 13 v 2.95 H 1.18 Z"
   class="st26"
   id="path769" />
				</g>
				<g
   id="shape250-290"
   v:mID="250"
   v:groupContext="shape"
   transform="translate(13.8491,-17.3949)">
					<title
   id="title772">Sheet.250</title>
					<circle
   cx="0.59096301"
   cy="198.409"
   class="st26"
   id="ellipse774"
   r="0.59096301" />
				</g>
				<g
   id="shape251-292"
   v:mID="251"
   v:groupContext="shape"
   transform="translate(2.92056,-9.12995)">
					<title
   id="title777">Sheet.251</title>
					<path
   d="m 0,199 h 14.21 v -5.31 H 0 Z m 1.18,-4.13 H 13 v 2.98 H 1.18 Z"
   class="st26"
   id="path779" />
				</g>
				<g
   id="shape252-294"
   v:mID="252"
   v:groupContext="shape"
   transform="translate(13.8491,-11.194)">
					<title
   id="title782">Sheet.252</title>
					<circle
   cx="0.59096301"
   cy="198.409"
   class="st26"
   id="ellipse784"
   r="0.59096301" />
				</g>
				<g
   id="shape253-296"
   v:mID="253"
   v:groupContext="shape"
   transform="translate(2.92056,-2.92056)">
					<title
   id="title787">Sheet.253</title>
					<path
   d="m 0,199 h 14.21 v -5.32 H 0 Z m 1.18,-4.14 H 13 v 2.96 H 1.18 Z"
   class="st26"
   id="path789" />
				</g>
				<g
   id="shape254-298"
   v:mID="254"
   v:groupContext="shape"
   transform="translate(13.8491,-4.99321)">
					<title
   id="title792">Sheet.254</title>
					<circle
   cx="0.59096301"
   cy="198.409"
   class="st26"
   id="ellipse794"
   r="0.59096301" />
				</g>
			</g>
		</g>
		<g
   id="shape276-300"
   v:mID="276"
   v:groupContext="shape"
   v:layerMember="0"
   transform="translate(258.269,-90.5001)">
			<title
   id="title799">Sheet.276</title>
			<path
   d="m 0,199 h -37.93 v 40.49 h -32.61"
   class="st27"
   id="path801" />
		</g>
		<g
   id="shape274-309"
   v:mID="274"
   v:groupContext="shape"
   v:layerMember="0"
   transform="translate(259.394,-106.25)">
			<title
   id="title804">Sheet.274</title>
			<path
   d="m 0,199 h -39.38 v -49.29 h -120.3"
   class="st27"
   id="path806" />
		</g>
		<g
   id="shape328-316"
   v:mID="328"
   v:groupContext="shape"
   transform="translate(634.981,-73.8707)">
			<title
   id="title809">Sheet.328</title>
			<desc
   id="desc811">1</desc>
			<v:textBlock
   v:margins="rect(4,4,4,4)" />
			<v:textRect
   cx="7.20333"
   cy="191.81"
   width="14.41"
   height="14.3794" />
			<path
   d="m 0,191.81 c 0,-3.97 3.23,-7.19 7.2,-7.19 3.99,0 7.21,3.22 7.21,7.19 0,3.98 -3.22,7.19 -7.21,7.19 C 3.23,199 0,195.79 0,191.81 Z"
   class="st29"
   id="path813" />
			<text
   x="5.5500002"
   y="195.41"
   class="st30"
   v:langID="1033"
   id="text815"><v:paragraph
   v:horizAlign="1" /><v:tabList />1</text>		</g>
	</g>
</svg>
